<svg width="291" height="201" viewBox="0 0 291 201" fill="none" xmlns="http://www.w3.org/2000/svg">
  <path d="M30.5 0.5L30.5 8.68212C30.5 10.8913 32.2909 12.6821 34.5 12.6821L81.2717 12.6821C83.4808 12.6821 85.2717 14.473 85.2717 16.6821L85.2717 86.805C85.2717 89.0141 87.0626 90.805 89.2717 90.805L130.75 90.805" stroke="#5F82FF" stroke-width="0.5" stroke-dasharray="3 3"/>
  <path d="M106.359 201L106.359 151.117C106.359 148.908 108.149 147.117 110.359 147.117L139 147.117C141.209 147.117 143 145.326 143 143.117L143 118.379" stroke="#5F82FF" stroke-width="0.5" stroke-dasharray="3 3"/>
  <path d="M44.4998 15.3821C45.991 15.3821 47.1998 14.1733 47.1998 12.6821C47.1998 11.191 45.991 9.98212 44.4998 9.98212C43.0086 9.98212 41.7998 11.191 41.7998 12.6821C41.7998 14.1733 43.0086 15.3821 44.4998 15.3821Z" fill="#9747FF"/>
  <mask id="mask0_1061_4535" style="mask-type:luminance" maskUnits="userSpaceOnUse" x="130" y="83" width="36" height="36">
    <path d="M165.75 83.379H130.75V118.379H165.75V83.379Z" fill="white"/>
    <path d="M132.75 89.379C132.75 87.1699 134.541 85.379 136.75 85.379H159.75C161.959 85.379 163.75 87.1699 163.75 89.379V112.379C163.75 114.588 161.959 116.379 159.75 116.379H136.75C134.541 116.379 132.75 114.588 132.75 112.379V89.379Z" fill="black"/>
  </mask>
  <g mask="url(#mask0_1061_4535)">
    <path d="M136.75 85.379V86.879H159.75V85.379V83.879H136.75V85.379ZM163.75 89.379H162.25V112.379H163.75H165.25V89.379H163.75ZM159.75 116.379V114.879H136.75V116.379V117.879H159.75V116.379ZM132.75 112.379H134.25V89.379H132.75H131.25V112.379H132.75ZM136.75 116.379V114.879C135.369 114.879 134.25 113.76 134.25 112.379H132.75H131.25C131.25 115.417 133.712 117.879 136.75 117.879V116.379ZM163.75 112.379H162.25C162.25 113.76 161.131 114.879 159.75 114.879V116.379V117.879C162.788 117.879 165.25 115.417 165.25 112.379H163.75ZM159.75 85.379V86.879C161.131 86.879 162.25 87.9983 162.25 89.379H163.75H165.25C165.25 86.3414 162.788 83.879 159.75 83.879V85.379ZM136.75 85.379V83.879C133.712 83.879 131.25 86.3414 131.25 89.379H132.75H134.25C134.25 87.9983 135.369 86.879 136.75 86.879V85.379Z" fill="#5F82FF"/>
  </g>
  <path d="M153.22 96.8487C153.513 96.5558 153.987 96.5558 154.28 96.8487C154.573 97.1416 154.573 97.6164 154.28 97.9093L147.78 104.409C147.487 104.702 147.013 104.702 146.72 104.409L143.22 100.909C142.927 100.616 142.927 100.142 143.22 99.8487C143.494 99.5741 143.929 99.5567 144.224 99.797L144.28 99.8487L147.25 102.818L153.22 96.8487Z" fill="white"/>
  <path d="M192.443 112.657C193.934 112.657 195.143 111.448 195.143 109.957C195.143 108.466 193.934 107.257 192.443 107.257C190.952 107.257 189.743 108.466 189.743 109.957C189.743 111.448 190.952 112.657 192.443 112.657Z" fill="#9747FF"/>
  <path d="M106.659 171C108.316 171 109.659 169.657 109.659 168C109.659 166.343 108.316 165 106.659 165C105.002 165 103.659 166.343 103.659 168C103.659 169.657 105.002 171 106.659 171Z" fill="white"/>
  <path d="M240 31C241.657 31 243 29.6569 243 28C243 26.3432 241.657 25 240 25C238.343 25 237 26.3432 237 28C237 29.6569 238.343 31 240 31Z" fill="white"/>
</svg>
