<svg width="291" height="200" viewBox="0 0 291 200" fill="none" xmlns="http://www.w3.org/2000/svg">
  <g clip-path="url(#clip0_1331_12330)">
      <path d="M172.924 97L172.924 18.3821C172.924 16.173 174.715 14.3821 176.924 14.3821L186.605 14.3821C188.815 14.3821 190.605 12.5913 190.605 10.3821L190.605 -0.5" stroke="#5F82FF" stroke-width="0.5" stroke-dasharray="3 3"/>
    <path d="M215.999 102.5L215.999 165.883C215.999 168.092 217.79 169.883 219.999 169.883L248.641 169.883C250.85 169.883 252.641 171.674 252.641 173.883L252.641 198.621" stroke="#5F82FF" stroke-width="0.5" stroke-dasharray="3 3"/>
    <path d="M86.9999 199L86.9999 136.5C86.9999 134.291 88.7908 132.5 90.9999 132.5L113.75 132.5C115.959 132.5 117.75 130.709 117.75 128.5L117.75 103" stroke="#5F82FF" stroke-width="0.5" stroke-dasharray="3 3"/>
    <path d="M172.7 87.7959C174.191 87.7959 175.4 86.5871 175.4 85.0959C175.4 83.6048 174.191 82.3959 172.7 82.3959C171.209 82.3959 170 83.6048 170 85.0959C170 86.5871 171.209 87.7959 172.7 87.7959Z" fill="#9747FF"/>
    <path d="M215.7 160.4C217.191 160.4 218.4 159.191 218.4 157.7C218.4 156.209 217.191 155 215.7 155C214.209 155 213 156.209 213 157.7C213 159.191 214.209 160.4 215.7 160.4Z" fill="white"/>
    <path d="M86.7 145.4C88.1912 145.4 89.4 144.191 89.4 142.7C89.4 141.209 88.1912 140 86.7 140C85.2088 140 84 141.209 84 142.7C84 144.191 85.2088 145.4 86.7 145.4Z" fill="#9747FF"/>
    <circle cx="86.6992" cy="142.7" r="1.5" fill="#9747FF"/>
    <path d="M42.7 58.4C44.1912 58.4 45.4 57.1912 45.4 55.7C45.4 54.2088 44.1912 53 42.7 53C41.2088 53 40 54.2088 40 55.7C40 57.1912 41.2088 58.4 42.7 58.4Z" fill="white"/>
    <path d="M68 100C68 98.3431 69.3431 97 71 97H220C221.657 97 223 98.3431 223 100C223 101.657 221.657 103 220 103H71C69.3431 103 68 101.657 68 100Z" fill="#CACED4"/>
    <path d="M68 100C68 98.3431 69.3431 97 71 97H154C155.657 97 157 98.3431 157 100C157 101.657 155.657 103 154 103H71C69.3431 103 68 101.657 68 100Z" fill="#9747FF"/>
    <path d="M112.274 91L112.349 91.0052C112.715 91.0567 113 91.4824 113 92C113 92.5176 112.715 92.9433 112.349 92.9948L112.274 93H68.7258C68.325 93 68 92.5523 68 92C68 91.4477 68.325 91 68.7258 91H112.274Z" fill="#676A70"/>
    <path d="M91.6128 107L91.6528 107.005C91.848 107.057 92 107.482 92 108C92 108.518 91.848 108.943 91.6528 108.995L91.6128 109H68.3871C68.1733 109 68 108.552 68 108C68 107.448 68.1733 107 68.3871 107H91.6128Z" fill="#676A70"/>
  </g>
  <defs>
    <clipPath id="clip0_1331_12330">
      <rect width="291" height="200" fill="white"/>
    </clipPath>
  </defs>
</svg>
