<svg width="291" height="200" viewBox="0 0 291 200" fill="none" xmlns="http://www.w3.org/2000/svg">
  <path d="M106 63.2331L106 25.9942C106 23.785 107.791 21.9942 110 21.9942L180.123 21.9942C182.332 21.9942 184.123 20.2033 184.123 17.9942L184.123 5.48363e-06" stroke="#5F82FF" stroke-width="0.5" stroke-dasharray="3 3"/>
  <path d="M106 37.0166C107.491 37.0166 108.7 35.8078 108.7 34.3166C108.7 32.8254 107.491 31.6166 106 31.6166C104.509 31.6166 103.3 32.8254 103.3 34.3166C103.3 35.8078 104.509 37.0166 106 37.0166Z" fill="#9747FF"/>
  <path d="M44.6902 148.391C46.1814 148.391 47.3902 147.182 47.3902 145.691C47.3902 144.2 46.1814 142.991 44.6902 142.991C43.1991 142.991 41.9902 144.2 41.9902 145.691C41.9902 147.182 43.1991 148.391 44.6902 148.391Z" fill="#9747FF"/>
  <path d="M106.358 169.4C107.849 169.4 109.058 168.191 109.058 166.7C109.058 165.209 107.849 164 106.358 164C104.867 164 103.658 165.209 103.658 166.7C103.658 168.191 104.867 169.4 106.358 169.4Z" fill="white"/>
  <path d="M239.7 29.4C241.191 29.4 242.4 28.1912 242.4 26.7C242.4 25.2088 241.191 24 239.7 24C238.209 24 237 25.2088 237 26.7C237 28.1912 238.209 29.4 239.7 29.4Z" fill="white"/>
  <mask id="path-7-inside-1_1061_4457" fill="white">
    <path d="M94 81C94 74.3726 99.3726 69 106 69C112.627 69 118 74.3726 118 81C118 87.6274 112.627 93 106 93C99.3726 93 94 87.6274 94 81Z"/>
  </mask>
  <path d="M94 81C94 74.3726 99.3726 69 106 69C112.627 69 118 74.3726 118 81C118 87.6274 112.627 93 106 93C99.3726 93 94 87.6274 94 81Z" fill="#081A72"/>
  <path d="M106 93V91.5C100.201 91.5 95.5 86.799 95.5 81H94H92.5C92.5 88.4558 98.5442 94.5 106 94.5V93ZM118 81H116.5C116.5 86.799 111.799 91.5 106 91.5V93V94.5C113.456 94.5 119.5 88.4558 119.5 81H118ZM106 69V70.5C111.799 70.5 116.5 75.201 116.5 81H118H119.5C119.5 73.5442 113.456 67.5 106 67.5V69ZM106 69V67.5C98.5442 67.5 92.5 73.5442 92.5 81H94H95.5C95.5 75.201 100.201 70.5 106 70.5V69Z" fill="#5F82FF" mask="url(#path-7-inside-1_1061_4457)"/>
  <path d="M102 81C102 78.7909 103.791 77 106 77C108.209 77 110 78.7909 110 81C110 83.2091 108.209 85 106 85C103.791 85 102 83.2091 102 81Z" fill="white"/>
  <mask id="path-10-inside-2_1061_4457" fill="white">
    <path d="M94 120C94 113.373 99.3726 108 106 108C112.627 108 118 113.373 118 120C118 126.627 112.627 132 106 132C99.3726 132 94 126.627 94 120Z"/>
  </mask>
  <path d="M94 120C94 113.373 99.3726 108 106 108C112.627 108 118 113.373 118 120C118 126.627 112.627 132 106 132C99.3726 132 94 126.627 94 120Z" fill="#081A72"/>
  <path d="M106 132V130.5C100.201 130.5 95.5 125.799 95.5 120H94H92.5C92.5 127.456 98.5442 133.5 106 133.5V132ZM118 120H116.5C116.5 125.799 111.799 130.5 106 130.5V132V133.5C113.456 133.5 119.5 127.456 119.5 120H118ZM106 108V109.5C111.799 109.5 116.5 114.201 116.5 120H118H119.5C119.5 112.544 113.456 106.5 106 106.5V108ZM106 108V106.5C98.5442 106.5 92.5 112.544 92.5 120H94H95.5C95.5 114.201 100.201 109.5 106 109.5V108Z" fill="#676A70" mask="url(#path-10-inside-2_1061_4457)"/>
  <path d="M128.543 80.6408H173.543" stroke="white" stroke-width="1.5" stroke-linecap="round"/>
  <path d="M128.543 119.641H173.543" stroke="#676A70" stroke-width="1.5" stroke-linecap="round"/>
  <path d="M106 134.531L106 163.344C106 165.553 107.791 167.344 110 167.344L272.484 167.344C274.694 167.344 276.484 169.135 276.484 171.344L276.484 199.355" stroke="#5F82FF" stroke-width="0.5" stroke-dasharray="3 3"/>
</svg>
