<svg width="291" height="200" viewBox="0 0 291 200" fill="none" xmlns="http://www.w3.org/2000/svg">
  <path d="M176.157 81L273.5 81C275.709 81 277.5 79.2091 277.5 77L277.5 1.00001" stroke="#5F82FF" stroke-width="0.5" stroke-dasharray="3 3"/>
  <mask id="path-3-inside-1_1036_3265" fill="white">
    <path d="M115 81C115 72.7157 121.716 66 130 66H162C170.284 66 177 72.7157 177 81C177 89.2843 170.284 96 162 96H130C121.716 96 115 89.2843 115 81Z"/>
  </mask>
  <path d="M130 66V67.5H162V66V64.5H130V66ZM162 96V94.5H130V96V97.5H162V96ZM130 96V94.5C122.544 94.5 116.5 88.4558 116.5 81H115H113.5C113.5 90.1127 120.887 97.5 130 97.5V96ZM177 81H175.5C175.5 88.4558 169.456 94.5 162 94.5V96V97.5C171.113 97.5 178.5 90.1127 178.5 81H177ZM162 66V67.5C169.456 67.5 175.5 73.5442 175.5 81H177H178.5C178.5 71.8873 171.113 64.5 162 64.5V66ZM130 66V64.5C120.887 64.5 113.5 71.8873 113.5 81H115H116.5C116.5 73.5442 122.544 67.5 130 67.5V66Z" fill="#676A70" mask="url(#path-3-inside-1_1036_3265)"/>
  <circle cx="130" cy="81" r="9" fill="white"/>
  <mask id="path-6-inside-2_1036_3265" fill="white">
    <path d="M115 119C115 110.716 121.716 104 130 104H162C170.284 104 177 110.716 177 119C177 127.284 170.284 134 162 134H130C121.716 134 115 127.284 115 119Z"/>
  </mask>
  <path d="M115 119C115 110.716 121.716 104 130 104H162C170.284 104 177 110.716 177 119C177 127.284 170.284 134 162 134H130C121.716 134 115 127.284 115 119Z" fill="#280872"/>
  <path d="M130 104V105.5H162V104V102.5H130V104ZM162 134V132.5H130V134V135.5H162V134ZM130 134V132.5C122.544 132.5 116.5 126.456 116.5 119H115H113.5C113.5 128.113 120.887 135.5 130 135.5V134ZM177 119H175.5C175.5 126.456 169.456 132.5 162 132.5V134V135.5C171.113 135.5 178.5 128.113 178.5 119H177ZM162 104V105.5C169.456 105.5 175.5 111.544 175.5 119H177H178.5C178.5 109.887 171.113 102.5 162 102.5V104ZM130 104V102.5C120.887 102.5 113.5 109.887 113.5 119H115H116.5C116.5 111.544 122.544 105.5 130 105.5V104Z" fill="#9747FF" mask="url(#path-6-inside-2_1036_3265)"/>
  <circle cx="162" cy="119" r="9" fill="white"/>
  <path d="M31 198L31 25C31 22.7909 32.7909 21 35 21L85.2564 21C87.4655 21 89.2564 22.7909 89.2564 25L89.2564 77C89.2564 79.2091 91.0473 81 93.2564 81L115 81" stroke="#5F82FF" stroke-width="0.5" stroke-dasharray="3 3"/>
  <path d="M145 134V157C145 159.209 146.791 161 149 161H258C260.209 161 262 162.791 262 165V199.5" stroke="#5F82FF" stroke-width="0.5" stroke-dasharray="3 3"/>
  <path d="M228.7 83.4C230.191 83.4 231.4 82.1912 231.4 80.7C231.4 79.2088 230.191 78 228.7 78C227.209 78 226 79.2088 226 80.7C226 82.1912 227.209 83.4 228.7 83.4Z" fill="#9747FF"/>
  <path d="M185.7 163.4C187.191 163.4 188.4 162.191 188.4 160.7C188.4 159.209 187.191 158 185.7 158C184.209 158 183 159.209 183 160.7C183 162.191 184.209 163.4 185.7 163.4Z" fill="#9747FF"/>
  <path d="M30.7 123.4C32.1912 123.4 33.4 122.191 33.4 120.7C33.4 119.209 32.1912 118 30.7 118C29.2088 118 28 119.209 28 120.7C28 122.191 29.2088 123.4 30.7 123.4Z" fill="#9747FF"/>
</svg>
