<svg width="291" height="203" viewBox="0 0 291 203" fill="none" xmlns="http://www.w3.org/2000/svg">
  <path d="M83 96.5C83 94.2909 84.7909 92.5 87 92.5H204C206.209 92.5 208 94.2909 208 96.5V105.5C208 107.709 206.209 109.5 204 109.5H87C84.7909 109.5 83 107.709 83 105.5V96.5Z" fill="#280872"/>
  <mask id="path-3-outside-1_1036_3237" maskUnits="userSpaceOnUse" x="81" y="90.5" width="129" height="21" fill="black">
    <rect fill="white" x="81" y="90.5" width="129" height="21"/>
    <path d="M83 96.5C83 94.2909 84.7909 92.5 87 92.5H204C206.209 92.5 208 94.2909 208 96.5V105.5C208 107.709 206.209 109.5 204 109.5H87C84.7909 109.5 83 107.709 83 105.5V96.5Z"/>
  </mask>
  <path d="M87 92.5V94H204V92.5V91H87V92.5ZM208 96.5H206.5V105.5H208H209.5V96.5H208ZM204 109.5V108H87V109.5V111H204V109.5ZM83 105.5H84.5V96.5H83H81.5V105.5H83ZM87 109.5V108C85.6193 108 84.5 106.881 84.5 105.5H83H81.5C81.5 108.538 83.9624 111 87 111V109.5ZM208 105.5H206.5C206.5 106.881 205.381 108 204 108V109.5V111C207.038 111 209.5 108.538 209.5 105.5H208ZM204 92.5V94C205.381 94 206.5 95.1193 206.5 96.5H208H209.5C209.5 93.4624 207.038 91 204 91V92.5ZM87 92.5V91C83.9624 91 81.5 93.4624 81.5 96.5H83H84.5C84.5 95.1193 85.6193 94 87 94V92.5Z" fill="#9747FF" mask="url(#path-3-outside-1_1036_3237)"/>
  <path d="M91 101H141" stroke="white" stroke-width="1.5" stroke-linecap="round"/>
  <path d="M186.646 102.861C186.875 103.072 186.875 103.441 186.646 103.652C186.541 103.758 186.4 103.81 186.259 103.81C186.101 103.81 185.96 103.758 185.855 103.652L184.009 101.806L182.146 103.652C182.041 103.758 181.9 103.81 181.759 103.81C181.601 103.81 181.46 103.758 181.355 103.652C181.126 103.441 181.126 103.072 181.355 102.861L183.201 100.998L181.355 99.1521C181.126 98.9412 181.126 98.572 181.355 98.3611C181.566 98.1326 181.935 98.1326 182.146 98.3611L184.009 100.207L185.855 98.3611C186.066 98.1326 186.435 98.1326 186.646 98.3611C186.875 98.572 186.875 98.9412 186.646 99.1521L184.8 101.015L186.646 102.861Z" fill="#676A70"/>
  <path d="M201.271 98.3545C201.5 98.5654 201.5 98.9346 201.271 99.1455L196.771 103.646C196.56 103.874 196.191 103.874 195.98 103.646L193.73 101.396C193.501 101.185 193.501 100.815 193.73 100.604C193.941 100.376 194.31 100.376 194.521 100.604L196.367 102.45L200.48 98.3545C200.691 98.126 201.06 98.126 201.271 98.3545Z" fill="#9747FF"/>
  <path d="M26.3008 0.903824L26.3008 21C26.3008 23.2091 28.0916 25 30.3008 25L117 25C119.209 25 121 26.7909 121 29L121 90.5" stroke="#5F82FF" stroke-width="0.5" stroke-dasharray="3 3"/>
  <path d="M275.854 202.023L275.854 182C275.854 179.791 274.063 178 271.854 178L164.999 178C162.79 178 160.999 176.209 160.999 174L160.999 110.5" stroke="#5F82FF" stroke-width="0.5" stroke-dasharray="3 3"/>
  <path d="M10.9434 200.842V144C10.9434 141.791 12.7342 140 14.9434 140H106C108.209 140 110 138.209 110 136V110.5" stroke="#5F82FF" stroke-width="0.5" stroke-dasharray="3 3"/>
  <path d="M36.7 142.4C38.1912 142.4 39.4 141.191 39.4 139.7C39.4 138.209 38.1912 137 36.7 137C35.2088 137 34 138.209 34 139.7C34 141.191 35.2088 142.4 36.7 142.4Z" fill="#9747FF"/>
  <path d="M213.7 180.4C215.191 180.4 216.4 179.191 216.4 177.7C216.4 176.209 215.191 175 213.7 175C212.209 175 211 176.209 211 177.7C211 179.191 212.209 180.4 213.7 180.4Z" fill="#9747FF"/>
  <path d="M67.7 27.4C69.1912 27.4 70.4 26.1912 70.4 24.7C70.4 23.2088 69.1912 22 67.7 22C66.2088 22 65 23.2088 65 24.7C65 26.1912 66.2088 27.4 67.7 27.4Z" fill="#9747FF"/>
  <path d="M83 88H113" stroke="#5F82FF" stroke-width="1.5" stroke-linecap="round"/>
</svg>
