<svg width="291" height="200" viewBox="0 0 291 200" fill="none" xmlns="http://www.w3.org/2000/svg">
  <mask id="path-2-outside-1_1036_3118" maskUnits="userSpaceOnUse" x="67.978" y="44.6044" width="156" height="111" fill="black">
    <rect fill="white" x="67.978" y="44.6044" width="156" height="111"/>
    <path d="M69.978 50.6044C69.978 48.3953 71.7689 46.6044 73.978 46.6044H218C220.209 46.6044 222 48.3953 222 50.6044V149.396C222 151.605 220.209 153.396 218 153.396H73.978C71.7689 153.396 69.978 151.605 69.978 149.396V50.6044Z"/>
  </mask>
  <path d="M73.978 46.6044V48.1044H218V46.6044V45.1044H73.978V46.6044ZM222 50.6044H220.5V149.396H222H223.5V50.6044H222ZM218 153.396V151.896H73.978V153.396V154.896H218V153.396ZM69.978 149.396H71.478V50.6044H69.978H68.478V149.396H69.978ZM73.978 153.396V151.896C72.5973 151.896 71.478 150.776 71.478 149.396H69.978H68.478C68.478 152.433 70.9405 154.896 73.978 154.896V153.396ZM222 149.396H220.5C220.5 150.776 219.381 151.896 218 151.896V153.396V154.896C221.038 154.896 223.5 152.433 223.5 149.396H222ZM218 46.6044V48.1044C219.381 48.1044 220.5 49.2237 220.5 50.6044H222H223.5C223.5 47.5668 221.038 45.1044 218 45.1044V46.6044ZM73.978 46.6044V45.1044C70.9405 45.1044 68.478 47.5668 68.478 50.6044H69.978H71.478C71.478 49.2237 72.5973 48.1044 73.978 48.1044V46.6044Z" fill="#5F82FF" mask="url(#path-2-outside-1_1036_3118)"/>
  <mask id="path-4-inside-2_1036_3118" fill="white">
    <path d="M69.978 50.6044C69.978 48.3953 71.7689 46.6044 73.978 46.6044H218C220.209 46.6044 222 48.3953 222 50.6044V95.1459H69.978V50.6044Z"/>
  </mask>
  <path d="M69.978 50.6044C69.978 48.3953 71.7689 46.6044 73.978 46.6044H218C220.209 46.6044 222 48.3953 222 50.6044V95.1459H69.978V50.6044Z" fill="#081A72"/>
  <path d="M69.978 46.6044H222H69.978ZM222 96.6459H69.978V93.6459H222V96.6459ZM69.978 95.1459V46.6044V95.1459ZM222 46.6044V95.1459V46.6044Z" fill="#5F82FF" mask="url(#path-4-inside-2_1036_3118)"/>
  <path d="M86.1586 61.1668H186.403" stroke="white" stroke-width="1.5" stroke-linecap="round" stroke-linejoin="round"/>
  <path d="M205.82 62.7849L202.584 59.5488L199.348 62.7849" stroke="#9747FF" stroke-width="1.5" stroke-linecap="round" stroke-linejoin="round"/>
  <path d="M86.1586 72.4932H171.84" stroke="#9747FF" stroke-width="1.5" stroke-linecap="round" stroke-linejoin="round"/>
  <path d="M86.1586 82.2015H147.57" stroke="#9747FF" stroke-width="1.5" stroke-linecap="round" stroke-linejoin="round"/>
  <mask id="path-10-inside-3_1036_3118" fill="white">
    <path d="M69.978 95.1459H222V124.271H69.978V95.1459Z"/>
  </mask>
  <path d="M222 124.271V122.771H69.978V124.271V125.771H222V124.271Z" fill="#5F82FF" mask="url(#path-10-inside-3_1036_3118)"/>
  <path d="M86.1586 109.708H186.403" stroke="white" stroke-width="1.5" stroke-linecap="round" stroke-linejoin="round"/>
  <path d="M199.347 108.09L202.583 111.326L205.819 108.09" stroke="#9747FF" stroke-width="1.5" stroke-linecap="round" stroke-linejoin="round"/>
  <path d="M86.1586 138.833H186.403" stroke="white" stroke-width="1.5" stroke-linecap="round" stroke-linejoin="round"/>
  <path d="M199.347 137.215L202.583 140.451L205.819 137.215" stroke="#9747FF" stroke-width="1.5" stroke-linecap="round" stroke-linejoin="round"/>
  <path d="M161 154V180C161 182.209 162.791 184 165 184H263.5C265.709 184 267.5 185.791 267.5 188V200" stroke="#5F82FF" stroke-width="0.5" stroke-dasharray="3 3"/>
  <path d="M202 0L202 46" stroke="#5F82FF" stroke-width="0.5" stroke-dasharray="3 3"/>
  <path d="M69.5 74H18C15.7909 74 14 72.2091 14 70V0.5" stroke="#5F82FF" stroke-width="0.5" stroke-dasharray="3 3"/>
  <path d="M232.7 186.4C234.191 186.4 235.4 185.191 235.4 183.7C235.4 182.209 234.191 181 232.7 181C231.209 181 230 182.209 230 183.7C230 185.191 231.209 186.4 232.7 186.4Z" fill="#9747FF"/>
  <path d="M37.7 76.4C39.1912 76.4 40.4 75.1912 40.4 73.7C40.4 72.2088 39.1912 71 37.7 71C36.2088 71 35 72.2088 35 73.7C35 75.1912 36.2088 76.4 37.7 76.4Z" fill="#9747FF"/>
</svg>
