<svg width="291" height="200" viewBox="0 0 291 200" fill="none" xmlns="http://www.w3.org/2000/svg">
  <mask id="path-2-outside-1_1061_3948" maskUnits="userSpaceOnUse" x="21.25" y="89" width="254" height="22" fill="black">
    <rect fill="white" x="21.25" y="89" width="254" height="22"/>
    <path d="M23.25 95C23.25 92.7909 25.0409 91 27.25 91H269.25C271.459 91 273.25 92.7909 273.25 95V105C273.25 107.209 271.459 109 269.25 109H27.25C25.0409 109 23.25 107.209 23.25 105V95Z"/>
  </mask>
  <path d="M23.25 95C23.25 92.7909 25.0409 91 27.25 91H269.25C271.459 91 273.25 92.7909 273.25 95V105C273.25 107.209 271.459 109 269.25 109H27.25C25.0409 109 23.25 107.209 23.25 105V95Z" fill="#081A72"/>
  <path d="M27.25 91V92.5H269.25V91V89.5H27.25V91ZM273.25 95H271.75V105H273.25H274.75V95H273.25ZM269.25 109V107.5H27.25V109V110.5H269.25V109ZM23.25 105H24.75V95H23.25H21.75V105H23.25ZM27.25 109V107.5C25.8693 107.5 24.75 106.381 24.75 105H23.25H21.75C21.75 108.038 24.2124 110.5 27.25 110.5V109ZM273.25 105H271.75C271.75 106.381 270.631 107.5 269.25 107.5V109V110.5C272.288 110.5 274.75 108.038 274.75 105H273.25ZM269.25 91V92.5C270.631 92.5 271.75 93.6193 271.75 95H273.25H274.75C274.75 91.9624 272.288 89.5 269.25 89.5V91ZM27.25 91V89.5C24.2124 89.5 21.75 91.9624 21.75 95H23.25H24.75C24.75 93.6193 25.8693 92.5 27.25 92.5V91Z" fill="#5F82FF" mask="url(#path-2-outside-1_1061_3948)"/>
  <path d="M40.1772 95.5654L40.1772 100.987" stroke="#9747FF" stroke-width="1.5" stroke-linecap="round" stroke-linejoin="round"/>
  <circle cx="40.1804" cy="103.902" r="0.5" fill="white" stroke="#9747FF" stroke-width="0.5"/>
  <path d="M50.6387 100H233.125" stroke="white" stroke-width="1.5" stroke-linecap="round" stroke-linejoin="round"/>
  <path d="M246.069 100L257.069 100" stroke="#9747FF" stroke-width="1.5" stroke-linecap="round" stroke-linejoin="round"/>
  <path d="M41.75 200V150.117C41.75 147.908 43.5409 146.117 45.75 146.117H144.25C146.459 146.117 148.25 144.326 148.25 142.117V110.795" stroke="#5F82FF" stroke-width="0.5" stroke-dasharray="3 3"/>
  <path d="M202.042 0L201.817 89.6763" stroke="#5F82FF" stroke-width="0.5" stroke-dasharray="3 3"/>
  <path d="M73.5 91L73.5 40.8611C73.5 38.652 71.7092 36.8611 69.5 36.8611L17 36.8611C14.7909 36.8611 13 35.0702 13 32.8611L13 1.52588e-05" stroke="#5F82FF" stroke-width="0.5" stroke-dasharray="3 3"/>
  <path d="M41.8001 174.916C43.2913 174.916 44.5001 173.707 44.5001 172.216C44.5001 170.725 43.2913 169.516 41.8001 169.516C40.3089 169.516 39.1001 170.725 39.1001 172.216C39.1001 173.707 40.3089 174.916 41.8001 174.916Z" fill="#9747FF"/>
  <path d="M73.5 62.4411C74.9912 62.4411 76.2001 61.2322 76.2001 59.7411C76.2001 58.2499 74.9912 57.041 73.5 57.041C72.0089 57.041 70.8 58.2499 70.8 59.7411C70.8 61.2322 72.0089 62.4411 73.5 62.4411Z" fill="#9747FF"/>
</svg>
