<svg width="291" height="200" viewBox="0 0 291 200" fill="none" xmlns="http://www.w3.org/2000/svg">
  <g clip-path="url(#clip0_1062_4544)">
    <path d="M252.5 0L252.5 10.3821C252.5 12.5913 250.709 14.3821 248.5 14.3821L202.318 14.3821C200.109 14.3821 198.318 16.173 198.318 18.3821L198.318 88.505C198.318 90.7141 196.527 92.505 194.318 92.505L145.5 92.505" stroke="#5F82FF" stroke-width="0.5" stroke-dasharray="3 3"/>
    <path d="M164.153 117.379L164.153 167.262C164.153 169.471 165.944 171.262 168.153 171.262L196.794 171.262C199.004 171.262 200.794 173.053 200.794 175.262L200.794 200" stroke="#5F82FF" stroke-width="0.5" stroke-dasharray="3 3"/>
    <path d="M125.25 108.57L98.5001 108.57C96.2909 108.57 94.5001 110.361 94.5001 112.57L94.5001 199" stroke="#5F82FF" stroke-width="0.5" stroke-dasharray="3 3"/>
    <path d="M94.5 168.377C95.9912 168.377 97.2001 167.168 97.2001 165.677C97.2001 164.186 95.9912 162.977 94.5 162.977C93.0089 162.977 91.8 164.186 91.8 165.677C91.8 167.168 93.0089 168.377 94.5 168.377Z" fill="#9747FF"/>
    <path d="M198.095 87.7959C199.586 87.7959 200.795 86.5871 200.795 85.0959C200.795 83.6048 199.586 82.3959 198.095 82.3959C196.603 82.3959 195.395 83.6048 195.395 85.0959C195.395 86.5871 196.603 87.7959 198.095 87.7959Z" fill="#9747FF"/>
    <path d="M164.153 168.377C165.644 168.377 166.853 167.168 166.853 165.677C166.853 164.186 165.644 162.977 164.153 162.977C162.662 162.977 161.453 164.186 161.453 165.677C161.453 167.168 162.662 168.377 164.153 168.377Z" fill="white"/>
    <circle cx="146" cy="100" r="21.25" fill="#081A72" stroke="#5F82FF" stroke-width="1.5"/>
    <circle cx="145.5" cy="94.5" r="5.75" fill="#081A72" stroke="white" stroke-width="1.5"/>
    <path d="M134 112C137.613 107.472 147.271 101.133 157 112" stroke="white" stroke-width="1.5" stroke-linecap="round"/>
  </g>
  <defs>
    <clipPath id="clip0_1062_4544">
      <rect width="291" height="200" fill="white"/>
    </clipPath>
  </defs>
</svg>
