<svg width="291" height="202" viewBox="0 0 291 202" fill="none" xmlns="http://www.w3.org/2000/svg">
  <path d="M86.3111 100.25L86.3861 100.254C86.7521 100.292 87.0371 100.612 87.0371 101C87.0371 101.388 86.7521 101.708 86.3861 101.746L86.3111 101.75H42.7629C42.3621 101.75 42.0371 101.414 42.0371 101C42.0371 100.586 42.3621 100.25 42.7629 100.25H86.3111Z" fill="#5F82FF"/>
  <mask id="mask0_1365_5511" style="mask-type:luminance" maskUnits="userSpaceOnUse" x="109" y="83" width="73" height="36">
    <path d="M181.963 83.5H109.037V118.5H181.963V83.5Z" fill="white"/>
    <path d="M110.605 89.5C110.605 87.2909 112.01 85.5 113.742 85.5H177.258C178.99 85.5 180.395 87.2909 180.395 89.5V112.5C180.395 114.709 178.99 116.5 177.258 116.5H113.742C112.01 116.5 110.605 114.709 110.605 112.5V89.5Z" fill="black"/>
  </mask>
  <g mask="url(#mask0_1365_5511)">
    <path d="M113.742 85.5V87H177.258V85.5V84H113.742V85.5ZM180.395 89.5H179.219V112.5H180.395H181.571V89.5H180.395ZM177.258 116.5V115H113.742V116.5V118H177.258V116.5ZM110.606 112.5H111.782V89.5H110.606H109.43V112.5H110.606ZM113.742 116.5V115C112.66 115 111.782 113.881 111.782 112.5H110.606H109.43C109.43 115.538 111.361 118 113.742 118V116.5ZM180.395 112.5H179.219C179.219 113.881 178.341 115 177.258 115V116.5V118C179.641 118 181.571 115.538 181.571 112.5H180.395ZM177.258 85.5V87C178.341 87 179.219 88.1193 179.219 89.5H180.395H181.571C181.571 86.4624 179.641 84 177.258 84V85.5ZM113.742 85.5V84C111.361 84 109.43 86.4624 109.43 89.5H110.606H111.782C111.782 88.1193 112.66 87 113.742 87V85.5Z" fill="#5F82FF"/>
  </g>
  <path d="M167.237 100.25L167.312 100.254C167.678 100.292 167.963 100.612 167.963 101C167.963 101.388 167.678 101.708 167.312 101.746L167.237 101.75H123.689C123.288 101.75 122.963 101.414 122.963 101C122.963 100.586 123.288 100.25 123.689 100.25H167.237Z" fill="#5F82FF"/>
  <path d="M191.531 89.5C191.531 87.2909 192.927 85.5 194.648 85.5H257.771C259.493 85.5 260.889 87.2909 260.889 89.5V112.5C260.889 114.709 259.493 116.5 257.771 116.5H194.648C192.927 116.5 191.531 114.709 191.531 112.5V89.5Z" fill="#280872"/>
  <mask id="mask1_1365_5511" style="mask-type:luminance" maskUnits="userSpaceOnUse" x="189" y="83" width="74" height="36">
    <path d="M262.889 83.5H189.963V118.5H262.889V83.5Z" fill="white"/>
    <path d="M191.531 89.5C191.531 87.2909 192.936 85.5 194.668 85.5H258.184C259.916 85.5 261.32 87.2909 261.32 89.5V112.5C261.32 114.709 259.916 116.5 258.184 116.5H194.668C192.936 116.5 191.531 114.709 191.531 112.5V89.5Z" fill="black"/>
  </mask>
  <g mask="url(#mask1_1365_5511)">
    <path d="M194.668 85.5V87H258.184V85.5V84H194.668V85.5ZM261.321 89.5H260.145V112.5H261.321H262.497V89.5H261.321ZM258.184 116.5V115H194.668V116.5V118H258.184V116.5ZM191.532 112.5H192.708V89.5H191.532H190.355V112.5H191.532ZM194.668 116.5V115C193.586 115 192.708 113.881 192.708 112.5H191.532H190.355C190.355 115.538 192.286 118 194.668 118V116.5ZM261.321 112.5H260.145C260.145 113.881 259.267 115 258.184 115V116.5V118C260.566 118 262.497 115.538 262.497 112.5H261.321ZM258.184 85.5V87C259.267 87 260.145 88.1193 260.145 89.5H261.321H262.497C262.497 86.4624 260.566 84 258.184 84V85.5ZM194.668 85.5V84C192.286 84 190.355 86.4624 190.355 89.5H191.532H192.708C192.708 88.1193 193.586 87 194.668 87V85.5Z" fill="#843AFF"/>
  </g>
  <path d="M248.163 100.25L248.238 100.254C248.604 100.292 248.889 100.612 248.889 101C248.889 101.388 248.604 101.708 248.238 101.746L248.163 101.75H204.614C204.214 101.75 203.889 101.414 203.889 101C203.889 100.586 204.214 100.25 204.614 100.25H248.163Z" fill="white"/>
  <path d="M266.5 -1.8778e-06L266.5 6C266.5 8.20914 264.709 10 262.5 10L204.709 10C202.5 10 200.709 11.7909 200.709 14L200.709 83.5" stroke="#5F82FF" stroke-width="0.5" stroke-dasharray="3 3"/>
  <path d="M200.71 34.5276C202.201 34.5276 203.41 35.7366 203.41 37.2276C203.41 38.7186 202.201 39.9276 200.71 39.9276C199.219 39.9276 198.01 38.7186 198.01 37.2276C198.01 35.7366 199.219 34.5276 200.71 34.5276Z" fill="#9747FF"/>
  <path d="M99.0383 201.121L99.0383 151.238C99.0383 149.029 100.829 147.238 103.038 147.238L131.68 147.238C133.889 147.238 135.68 145.447 135.68 143.238L135.68 118.5" stroke="#5F82FF" stroke-width="0.5" stroke-dasharray="3 3"/>
  <path d="M54 101V2" stroke="#5F82FF" stroke-width="0.5" stroke-dasharray="3 3"/>
  <path d="M54.3008 37.8276C55.9576 37.8276 57.3008 36.4845 57.3008 34.8276C57.3008 33.1708 55.9576 31.8276 54.3008 31.8276C52.6439 31.8276 51.3008 33.1708 51.3008 34.8276C51.3008 36.4845 52.6439 37.8276 54.3008 37.8276Z" fill="#5F82FF"/>
</svg>
