<svg width="291" height="200" viewBox="0 0 291 200" fill="none" xmlns="http://www.w3.org/2000/svg">
  <g clip-path="url(#clip0_1061_4048)">
    <path d="M80 88C80 85.7909 81.7909 84 84 84H165C167.209 84 169 85.7909 169 88V111C169 113.209 167.209 115 165 115H84C81.7909 115 80 113.209 80 111V88Z" fill="#280872"/>
    <mask id="mask0_1061_4048" style="mask-type:luminance" maskUnits="userSpaceOnUse" x="78" y="82" width="93" height="35">
      <path d="M171 82H78V117H171V82Z" fill="white"/>
      <path d="M80 88C80 85.7909 81.7909 84 84 84H165C167.209 84 169 85.7909 169 88V111C169 113.209 167.209 115 165 115H84C81.7909 115 80 113.209 80 111V88Z" fill="black"/>
    </mask>
    <g mask="url(#mask0_1061_4048)">
      <path d="M84 84V85.5H165V84V82.5H84V84ZM169 88H167.5V111H169H170.5V88H169ZM165 115V113.5H84V115V116.5H165V115ZM80 111H81.5V88H80H78.5V111H80ZM84 115V113.5C82.6193 113.5 81.5 112.381 81.5 111H80H78.5C78.5 114.038 80.9624 116.5 84 116.5V115ZM169 111H167.5C167.5 112.381 166.381 113.5 165 113.5V115V116.5C168.038 116.5 170.5 114.038 170.5 111H169ZM165 84V85.5C166.381 85.5 167.5 86.6193 167.5 88H169H170.5C170.5 84.9624 168.038 82.5 165 82.5V84ZM84 84V82.5C80.9624 82.5 78.5 84.9624 78.5 88H80H81.5C81.5 86.6193 82.6193 85.5 84 85.5V84Z" fill="#843AFF"/>
    </g>
    <path d="M101.591 93.75C102.163 93.7501 102.712 93.9779 103.117 94.3828C103.522 94.7878 103.75 95.3374 103.75 95.9102C103.75 96.4111 103.576 96.8942 103.261 97.2783L103.117 97.4365L96.4434 104.111C96.2406 104.313 95.9908 104.463 95.7168 104.547L93.5401 105.207H93.5381C93.3652 105.259 93.181 105.264 93.0059 105.22C92.831 105.176 92.6717 105.085 92.544 104.957C92.4162 104.83 92.3246 104.67 92.2803 104.495C92.2361 104.32 92.2405 104.137 92.292 103.964L92.293 103.96L92.9532 101.784L92.9542 101.782C93.0383 101.508 93.1885 101.258 93.3917 101.056L100.063 94.3828C100.468 93.978 101.018 93.7499 101.591 93.75ZM101.591 95.25C101.416 95.25 101.248 95.3197 101.124 95.4434L94.4502 102.118C94.422 102.146 94.3999 102.181 94.3877 102.219L94.3887 102.22L94.0001 103.499L95.2803 103.111L95.336 103.087C95.3533 103.076 95.3694 103.064 95.3838 103.05L102.057 96.376L102.139 96.2754C102.21 96.1678 102.25 96.0404 102.25 95.9092L102.237 95.7803C102.212 95.6535 102.149 95.5361 102.057 95.4434C101.933 95.3197 101.766 95.2501 101.591 95.25Z" fill="white"/>
    <path d="M156.274 98.75L156.349 98.7539C156.715 98.7925 157 99.1118 157 99.5C157 99.8882 156.715 100.208 156.349 100.246L156.274 100.25H112.726C112.325 100.25 112 99.9142 112 99.5C112 99.0858 112.325 98.75 112.726 98.75H156.274Z" fill="white"/>
    <mask id="mask1_1061_4048" style="mask-type:luminance" maskUnits="userSpaceOnUse" x="177" y="82" width="35" height="35">
      <path d="M212 82H177V117H212V82Z" fill="white"/>
      <path d="M179 88C179 85.7909 180.791 84 183 84H206C208.209 84 210 85.7909 210 88V111C210 113.209 208.209 115 206 115H183C180.791 115 179 113.209 179 111V88Z" fill="black"/>
    </mask>
    <g mask="url(#mask1_1061_4048)">
      <path d="M183 84V85.5H206V84V82.5H183V84ZM210 88H208.5V111H210H211.5V88H210ZM206 115V113.5H183V115V116.5H206V115ZM179 111H180.5V88H179H177.5V111H179ZM183 115V113.5C181.619 113.5 180.5 112.381 180.5 111H179H177.5C177.5 114.038 179.962 116.5 183 116.5V115ZM210 111H208.5C208.5 112.381 207.381 113.5 206 113.5V115V116.5C209.038 116.5 211.5 114.038 211.5 111H210ZM206 84V85.5C207.381 85.5 208.5 86.6193 208.5 88H210H211.5C211.5 84.9624 209.038 82.5 206 82.5V84ZM183 84V82.5C179.962 82.5 177.5 84.9624 177.5 88H179H180.5C180.5 86.6193 181.619 85.5 183 85.5V84Z" fill="#5F82FF"/>
    </g>
    <path d="M199.47 95.4697C199.763 95.1768 200.237 95.1768 200.53 95.4697C200.823 95.7626 200.823 96.2374 200.53 96.5303L194.03 103.03C193.737 103.323 193.263 103.323 192.97 103.03L189.47 99.5303C189.177 99.2374 189.177 98.7626 189.47 98.4697C189.744 98.1951 190.179 98.1777 190.474 98.418L190.53 98.4697L193.5 101.439L199.47 95.4697Z" fill="white"/>
    <mask id="path-11-inside-1_1061_4048" fill="white">
      <path d="M21.321 98.3166C21.3726 98.181 21.5277 98.1176 21.6633 98.1694C22.1523 98.356 22.6783 98.4575 23.2265 98.4575H24.4757C24.6255 98.4575 24.7469 98.579 24.7469 98.7288C24.7469 98.8786 24.6255 99 24.4757 99H23.2265C22.6119 99 22.0216 98.8843 21.4734 98.6717C21.3326 98.6171 21.2674 98.4578 21.321 98.3166ZM30.5597 98.4575C30.7095 98.4575 30.8309 98.579 30.8309 98.7288C30.8309 98.8786 30.7095 99 30.5597 99H28.0601C27.9103 99 27.7889 98.8786 27.7889 98.7288C27.7889 98.579 27.9103 98.4575 28.0601 98.4575H30.5597ZM36.6436 98.4575C36.7934 98.4575 36.9148 98.579 36.9148 98.7288C36.9148 98.8786 36.7934 99 36.6436 99H34.144C33.9942 99 33.8728 98.8786 33.8728 98.7288C33.8728 98.579 33.9942 98.4575 34.144 98.4575H36.6436ZM42.7275 98.4575C42.8773 98.4575 42.9987 98.579 42.9987 98.7288C42.9987 98.8786 42.8773 99 42.7275 99H40.228C40.0782 99 39.9568 98.8786 39.9568 98.7288C39.9568 98.579 40.0782 98.4575 40.228 98.4575H42.7275ZM48.8115 98.4575C48.9613 98.4575 49.0827 98.579 49.0827 98.7288C49.0827 98.8786 48.9613 99 48.8115 99H46.3119C46.1621 99 46.0407 98.8786 46.0407 98.7288C46.0407 98.579 46.1621 98.4575 46.3119 98.4575H48.8115ZM54.8944 98.4575C55.0442 98.4575 55.1656 98.579 55.1656 98.7288C55.1656 98.8786 55.0442 99 54.8944 99H52.3948C52.245 99 52.1236 98.8786 52.1236 98.7288C52.1236 98.579 52.245 98.4575 52.3948 98.4575H54.8944ZM60.9783 98.4575C61.1281 98.4575 61.2495 98.579 61.2495 98.7288C61.2495 98.8786 61.1281 99 60.9783 99H58.4788C58.329 99 58.2076 98.8786 58.2076 98.7288C58.2076 98.579 58.329 98.4575 58.4788 98.4575H60.9783ZM67.0622 98.4575C67.212 98.4575 67.3335 98.579 67.3335 98.7288C67.3335 98.8786 67.212 99 67.0622 99H64.5627C64.4129 99 64.2915 98.8786 64.2915 98.7288C64.2915 98.579 64.4129 98.4575 64.5627 98.4575H67.0622ZM73.1461 98.4575C73.2959 98.4575 73.4174 98.579 73.4174 98.7288C73.4174 98.8786 73.2959 99 73.1461 99H70.6466C70.4968 99 70.3754 98.8786 70.3754 98.7288C70.3754 98.579 70.4968 98.4575 70.6466 98.4575H73.1461ZM77.7086 98.4575C77.8584 98.4575 77.9798 98.579 77.9798 98.7288C77.9798 98.8786 77.8584 99 77.7086 99H76.7306C76.5808 99 76.4594 98.8786 76.4594 98.7288C76.4594 98.579 76.5808 98.4575 76.7306 98.4575H77.7086ZM18 93.3041V91.9521C18 91.8146 18.1114 91.7032 18.2489 91.7032C18.3863 91.7032 18.4978 91.8146 18.4978 91.9521V93.3041C18.4978 93.9134 18.5947 94.4976 18.7725 95.0396C18.8166 95.174 18.756 95.3224 18.6271 95.3808C18.5021 95.4371 18.3551 95.3766 18.3118 95.2466C18.11 94.6401 18 93.9858 18 93.3041ZM18.2489 85.3006C18.3863 85.3006 18.4978 85.412 18.4978 85.5494V88.2535C18.4978 88.391 18.3863 88.5024 18.2489 88.5024C18.1114 88.5024 18 88.391 18 88.2535V85.5494C18 85.412 18.1114 85.3006 18.2489 85.3006ZM18.2489 78.8991C18.3863 78.8991 18.4978 79.0106 18.4978 79.148V81.851C18.4978 81.9885 18.3863 82.0999 18.2489 82.0999C18.1114 82.0999 18 81.9885 18 81.851V79.148C18 79.0106 18.1114 78.8991 18.2489 78.8991ZM18.2489 72.4965C18.3863 72.4965 18.4978 72.608 18.4978 72.7454V75.4484C18.4978 75.5859 18.3863 75.6973 18.2489 75.6973C18.1114 75.6973 18 75.5859 18 75.4484V72.7454C18 72.608 18.1114 72.4965 18.2489 72.4965ZM18.2489 66.0939C18.3863 66.0939 18.4978 66.2053 18.4978 66.3428V69.0458C18.4978 69.1833 18.3863 69.2947 18.2489 69.2947C18.1114 69.2947 18 69.1833 18 69.0458V66.3428C18 66.2053 18.1114 66.0939 18.2489 66.0939ZM18.2489 59.6914C18.3863 59.6914 18.4978 59.8028 18.4978 59.9403V62.6433C18.4978 62.7808 18.3863 62.8922 18.2489 62.8922C18.1114 62.8922 18 62.7808 18 62.6433V59.9403C18 59.8028 18.1114 59.6914 18.2489 59.6914ZM18.2489 53.2888C18.3863 53.2888 18.4978 53.4002 18.4978 53.5377V56.2418C18.4978 56.3792 18.3863 56.4907 18.2489 56.4907C18.1114 56.4907 18 56.3792 18 56.2418V53.5377C18 53.4002 18.1114 53.2888 18.2489 53.2888ZM18.2489 46.8862C18.3863 46.8862 18.4978 46.9976 18.4978 47.1351V49.8392C18.4978 49.9766 18.3863 50.088 18.2489 50.088C18.1114 50.088 18 49.9766 18 49.8392V47.1351C18 46.9976 18.1114 46.8862 18.2489 46.8862ZM18.2489 40.4837C18.3863 40.4837 18.4978 40.5951 18.4978 40.7326V43.4365C18.4978 43.574 18.3863 43.6854 18.2489 43.6854C18.1114 43.6854 18 43.574 18 43.4365V40.7326C18 40.5951 18.1114 40.4837 18.2489 40.4837ZM18 35.682C18 35.0004 18.11 34.346 18.3118 33.7395C18.3551 33.6095 18.5021 33.549 18.6271 33.6053C18.756 33.6637 18.8166 33.812 18.7725 33.9465C18.5947 34.4885 18.4978 35.0728 18.4978 35.682V37.034C18.4978 37.1715 18.3863 37.2829 18.2489 37.2829C18.1114 37.2829 18 37.1715 18 37.034V35.682ZM24.4339 29.9861C24.5837 29.9861 24.7051 30.1075 24.7051 30.2573C24.7051 30.4071 24.5837 30.5286 24.4339 30.5286H23.2265C22.6783 30.5286 22.1522 30.6301 21.6632 30.8167C21.5276 30.8684 21.3726 30.805 21.321 30.6695C21.2674 30.5283 21.3326 30.369 21.4734 30.3144C22.0216 30.1018 22.6119 29.9861 23.2265 29.9861H24.4339ZM30.3487 29.9861C30.4985 29.9861 30.62 30.1075 30.62 30.2573C30.62 30.4071 30.4985 30.5286 30.3487 30.5286H27.9338C27.784 30.5286 27.6626 30.4071 27.6626 30.2573C27.6626 30.1075 27.784 29.9861 27.9338 29.9861H30.3487ZM36.2625 29.9861C36.4123 29.9861 36.5337 30.1075 36.5337 30.2573C36.5337 30.4071 36.4123 30.5286 36.2625 30.5286H33.8486C33.6988 30.5286 33.5773 30.4071 33.5773 30.2573C33.5773 30.1075 33.6988 29.9861 33.8486 29.9861H36.2625ZM42.1772 29.9861C42.327 29.9861 42.4485 30.1075 42.4485 30.2573C42.4485 30.4071 42.327 30.5286 42.1772 30.5286H39.7623C39.6125 30.5286 39.4911 30.4071 39.4911 30.2573C39.4911 30.1075 39.6125 29.9861 39.7623 29.9861H42.1772ZM48.092 29.9861C48.2418 29.9861 48.3632 30.1075 48.3632 30.2573C48.3632 30.4071 48.2418 30.5286 48.092 30.5286H45.6771C45.5273 30.5286 45.4059 30.4071 45.4059 30.2573C45.4059 30.1075 45.5273 29.9861 45.6771 29.9861H48.092ZM54.0068 29.9861C54.1566 29.9861 54.278 30.1075 54.278 30.2573C54.278 30.4071 54.1566 30.5286 54.0068 30.5286H51.5918C51.442 30.5286 51.3206 30.4071 51.3206 30.2573C51.3206 30.1075 51.442 29.9861 51.5918 29.9861H54.0068ZM59.9215 29.9861C60.0713 29.9861 60.1927 30.1075 60.1927 30.2573C60.1927 30.4071 60.0713 30.5286 59.9215 30.5286H57.5066C57.3568 30.5286 57.2354 30.4071 57.2354 30.2573C57.2354 30.1075 57.3568 29.9861 57.5066 29.9861H59.9215ZM65.8353 29.9861C65.9851 29.9861 66.1065 30.1075 66.1065 30.2573C66.1065 30.4071 65.9851 30.5286 65.8353 30.5286H63.4204C63.2706 30.5286 63.1491 30.4071 63.1491 30.2573C63.1491 30.1075 63.2706 29.9861 63.4204 29.9861H65.8353ZM71.75 29.9861C71.8998 29.9861 72.0213 30.1075 72.0213 30.2573C72.0213 30.4071 71.8998 30.5286 71.75 30.5286H69.3351C69.1853 30.5286 69.0639 30.4071 69.0639 30.2573C69.0639 30.1075 69.1853 29.9861 69.3351 29.9861H71.75ZM77.6649 29.9861C77.8147 29.9861 77.9361 30.1075 77.9361 30.2573C77.9361 30.4071 77.8147 30.5286 77.6649 30.5286H75.25C75.1002 30.5286 74.9787 30.4071 74.9787 30.2573C74.9787 30.1075 75.1002 29.9861 75.25 29.9861H77.6649ZM83.5796 29.9861C83.7294 29.9861 83.8509 30.1075 83.8509 30.2573C83.8509 30.4071 83.7294 30.5286 83.5796 30.5286H81.1647C81.0149 30.5286 80.8935 30.4071 80.8935 30.2573C80.8935 30.1075 81.0149 29.9861 81.1647 29.9861H83.5796ZM89.4934 29.9861C89.6432 29.9861 89.7646 30.1075 89.7646 30.2573C89.7646 30.4071 89.6432 30.5286 89.4934 30.5286H87.0785C86.9287 30.5286 86.8073 30.4071 86.8073 30.2573C86.8073 30.1075 86.9287 29.9861 87.0785 29.9861H89.4934ZM95.4082 29.9861C95.558 29.9861 95.6794 30.1075 95.6794 30.2573C95.6794 30.4071 95.558 30.5286 95.4082 30.5286H92.9932C92.8435 30.5286 92.722 30.4071 92.722 30.2573C92.722 30.1075 92.8435 29.9861 92.9932 29.9861H95.4082ZM101.323 29.9861C101.473 29.9861 101.594 30.1075 101.594 30.2573C101.594 30.4071 101.473 30.5286 101.323 30.5286H98.908C98.7582 30.5286 98.6368 30.4071 98.6368 30.2573C98.6368 30.1075 98.7582 29.9861 98.908 29.9861H101.323ZM107.238 29.9861C107.387 29.9861 107.509 30.1075 107.509 30.2573C107.509 30.4071 107.387 30.5286 107.238 30.5286H104.823C104.673 30.5286 104.552 30.4071 104.552 30.2573C104.552 30.1075 104.673 29.9861 104.823 29.9861H107.238ZM113.151 29.9861C113.301 29.9861 113.423 30.1075 113.423 30.2573C113.423 30.4071 113.301 30.5286 113.151 30.5286H110.738C110.588 30.5286 110.466 30.4071 110.466 30.2573C110.466 30.1075 110.588 29.9861 110.738 29.9861H113.151ZM119.066 29.9861C119.216 29.9861 119.338 30.1075 119.338 30.2573C119.338 30.4071 119.216 30.5286 119.066 30.5286H116.651C116.501 30.5286 116.38 30.4071 116.38 30.2573C116.38 30.1075 116.501 29.9861 116.651 29.9861H119.066ZM125.679 29.8462C125.733 29.9866 125.668 30.1454 125.528 30.1997C124.979 30.4127 124.388 30.5286 123.774 30.5286H122.566C122.417 30.5286 122.295 30.4071 122.295 30.2573C122.295 30.1075 122.417 29.9861 122.566 29.9861H123.774C124.322 29.9861 124.847 29.8847 125.335 29.6984C125.471 29.6465 125.627 29.7101 125.679 29.8462ZM128.502 24.8327V23.5293C128.502 23.3919 128.614 23.2805 128.751 23.2805C128.889 23.2805 129 23.3919 129 23.5293V24.8327C129 25.514 128.89 26.1682 128.689 26.7745C128.645 26.9048 128.498 26.9655 128.373 26.9092C128.244 26.8509 128.184 26.7027 128.228 26.5684C128.405 26.0264 128.502 25.4421 128.502 24.8327ZM128.751 17.0728C128.889 17.0728 129 17.1842 129 17.3217V19.9284C129 20.0658 128.889 20.1772 128.751 20.1772C128.614 20.1772 128.502 20.0658 128.502 19.9284V17.3217C128.502 17.1842 128.614 17.0728 128.751 17.0728ZM128.751 10.8642C128.889 10.8642 129 10.9756 129 11.1131V13.7196C129 13.8571 128.889 13.9685 128.751 13.9685C128.614 13.9685 128.502 13.8571 128.502 13.7196V11.1131C128.502 10.9756 128.614 10.8642 128.751 10.8642ZM128.751 4.65652C128.889 4.65652 129 4.76794 129 4.90539V7.51092C129 7.64837 128.889 7.7598 128.751 7.7598C128.614 7.7598 128.502 7.64837 128.502 7.51092V4.90539C128.502 4.76794 128.614 4.65652 128.751 4.65652ZM128.751 0C128.889 0 129 0.111427 129 0.248878V1.30329C129 1.44074 128.889 1.55217 128.751 1.55217C128.614 1.55217 128.502 1.44074 128.502 1.30329V0.248878C128.502 0.111426 128.614 0 128.751 0Z"/>
    </mask>
    <path d="M21.321 98.3166C21.3726 98.181 21.5277 98.1176 21.6633 98.1694C22.1523 98.356 22.6783 98.4575 23.2265 98.4575H24.4757C24.6255 98.4575 24.7469 98.579 24.7469 98.7288C24.7469 98.8786 24.6255 99 24.4757 99H23.2265C22.6119 99 22.0216 98.8843 21.4734 98.6717C21.3326 98.6171 21.2674 98.4578 21.321 98.3166ZM30.5597 98.4575C30.7095 98.4575 30.8309 98.579 30.8309 98.7288C30.8309 98.8786 30.7095 99 30.5597 99H28.0601C27.9103 99 27.7889 98.8786 27.7889 98.7288C27.7889 98.579 27.9103 98.4575 28.0601 98.4575H30.5597ZM36.6436 98.4575C36.7934 98.4575 36.9148 98.579 36.9148 98.7288C36.9148 98.8786 36.7934 99 36.6436 99H34.144C33.9942 99 33.8728 98.8786 33.8728 98.7288C33.8728 98.579 33.9942 98.4575 34.144 98.4575H36.6436ZM42.7275 98.4575C42.8773 98.4575 42.9987 98.579 42.9987 98.7288C42.9987 98.8786 42.8773 99 42.7275 99H40.228C40.0782 99 39.9568 98.8786 39.9568 98.7288C39.9568 98.579 40.0782 98.4575 40.228 98.4575H42.7275ZM48.8115 98.4575C48.9613 98.4575 49.0827 98.579 49.0827 98.7288C49.0827 98.8786 48.9613 99 48.8115 99H46.3119C46.1621 99 46.0407 98.8786 46.0407 98.7288C46.0407 98.579 46.1621 98.4575 46.3119 98.4575H48.8115ZM54.8944 98.4575C55.0442 98.4575 55.1656 98.579 55.1656 98.7288C55.1656 98.8786 55.0442 99 54.8944 99H52.3948C52.245 99 52.1236 98.8786 52.1236 98.7288C52.1236 98.579 52.245 98.4575 52.3948 98.4575H54.8944ZM60.9783 98.4575C61.1281 98.4575 61.2495 98.579 61.2495 98.7288C61.2495 98.8786 61.1281 99 60.9783 99H58.4788C58.329 99 58.2076 98.8786 58.2076 98.7288C58.2076 98.579 58.329 98.4575 58.4788 98.4575H60.9783ZM67.0622 98.4575C67.212 98.4575 67.3335 98.579 67.3335 98.7288C67.3335 98.8786 67.212 99 67.0622 99H64.5627C64.4129 99 64.2915 98.8786 64.2915 98.7288C64.2915 98.579 64.4129 98.4575 64.5627 98.4575H67.0622ZM73.1461 98.4575C73.2959 98.4575 73.4174 98.579 73.4174 98.7288C73.4174 98.8786 73.2959 99 73.1461 99H70.6466C70.4968 99 70.3754 98.8786 70.3754 98.7288C70.3754 98.579 70.4968 98.4575 70.6466 98.4575H73.1461ZM77.7086 98.4575C77.8584 98.4575 77.9798 98.579 77.9798 98.7288C77.9798 98.8786 77.8584 99 77.7086 99H76.7306C76.5808 99 76.4594 98.8786 76.4594 98.7288C76.4594 98.579 76.5808 98.4575 76.7306 98.4575H77.7086ZM18 93.3041V91.9521C18 91.8146 18.1114 91.7032 18.2489 91.7032C18.3863 91.7032 18.4978 91.8146 18.4978 91.9521V93.3041C18.4978 93.9134 18.5947 94.4976 18.7725 95.0396C18.8166 95.174 18.756 95.3224 18.6271 95.3808C18.5021 95.4371 18.3551 95.3766 18.3118 95.2466C18.11 94.6401 18 93.9858 18 93.3041ZM18.2489 85.3006C18.3863 85.3006 18.4978 85.412 18.4978 85.5494V88.2535C18.4978 88.391 18.3863 88.5024 18.2489 88.5024C18.1114 88.5024 18 88.391 18 88.2535V85.5494C18 85.412 18.1114 85.3006 18.2489 85.3006ZM18.2489 78.8991C18.3863 78.8991 18.4978 79.0106 18.4978 79.148V81.851C18.4978 81.9885 18.3863 82.0999 18.2489 82.0999C18.1114 82.0999 18 81.9885 18 81.851V79.148C18 79.0106 18.1114 78.8991 18.2489 78.8991ZM18.2489 72.4965C18.3863 72.4965 18.4978 72.608 18.4978 72.7454V75.4484C18.4978 75.5859 18.3863 75.6973 18.2489 75.6973C18.1114 75.6973 18 75.5859 18 75.4484V72.7454C18 72.608 18.1114 72.4965 18.2489 72.4965ZM18.2489 66.0939C18.3863 66.0939 18.4978 66.2053 18.4978 66.3428V69.0458C18.4978 69.1833 18.3863 69.2947 18.2489 69.2947C18.1114 69.2947 18 69.1833 18 69.0458V66.3428C18 66.2053 18.1114 66.0939 18.2489 66.0939ZM18.2489 59.6914C18.3863 59.6914 18.4978 59.8028 18.4978 59.9403V62.6433C18.4978 62.7808 18.3863 62.8922 18.2489 62.8922C18.1114 62.8922 18 62.7808 18 62.6433V59.9403C18 59.8028 18.1114 59.6914 18.2489 59.6914ZM18.2489 53.2888C18.3863 53.2888 18.4978 53.4002 18.4978 53.5377V56.2418C18.4978 56.3792 18.3863 56.4907 18.2489 56.4907C18.1114 56.4907 18 56.3792 18 56.2418V53.5377C18 53.4002 18.1114 53.2888 18.2489 53.2888ZM18.2489 46.8862C18.3863 46.8862 18.4978 46.9976 18.4978 47.1351V49.8392C18.4978 49.9766 18.3863 50.088 18.2489 50.088C18.1114 50.088 18 49.9766 18 49.8392V47.1351C18 46.9976 18.1114 46.8862 18.2489 46.8862ZM18.2489 40.4837C18.3863 40.4837 18.4978 40.5951 18.4978 40.7326V43.4365C18.4978 43.574 18.3863 43.6854 18.2489 43.6854C18.1114 43.6854 18 43.574 18 43.4365V40.7326C18 40.5951 18.1114 40.4837 18.2489 40.4837ZM18 35.682C18 35.0004 18.11 34.346 18.3118 33.7395C18.3551 33.6095 18.5021 33.549 18.6271 33.6053C18.756 33.6637 18.8166 33.812 18.7725 33.9465C18.5947 34.4885 18.4978 35.0728 18.4978 35.682V37.034C18.4978 37.1715 18.3863 37.2829 18.2489 37.2829C18.1114 37.2829 18 37.1715 18 37.034V35.682ZM24.4339 29.9861C24.5837 29.9861 24.7051 30.1075 24.7051 30.2573C24.7051 30.4071 24.5837 30.5286 24.4339 30.5286H23.2265C22.6783 30.5286 22.1522 30.6301 21.6632 30.8167C21.5276 30.8684 21.3726 30.805 21.321 30.6695C21.2674 30.5283 21.3326 30.369 21.4734 30.3144C22.0216 30.1018 22.6119 29.9861 23.2265 29.9861H24.4339ZM30.3487 29.9861C30.4985 29.9861 30.62 30.1075 30.62 30.2573C30.62 30.4071 30.4985 30.5286 30.3487 30.5286H27.9338C27.784 30.5286 27.6626 30.4071 27.6626 30.2573C27.6626 30.1075 27.784 29.9861 27.9338 29.9861H30.3487ZM36.2625 29.9861C36.4123 29.9861 36.5337 30.1075 36.5337 30.2573C36.5337 30.4071 36.4123 30.5286 36.2625 30.5286H33.8486C33.6988 30.5286 33.5773 30.4071 33.5773 30.2573C33.5773 30.1075 33.6988 29.9861 33.8486 29.9861H36.2625ZM42.1772 29.9861C42.327 29.9861 42.4485 30.1075 42.4485 30.2573C42.4485 30.4071 42.327 30.5286 42.1772 30.5286H39.7623C39.6125 30.5286 39.4911 30.4071 39.4911 30.2573C39.4911 30.1075 39.6125 29.9861 39.7623 29.9861H42.1772ZM48.092 29.9861C48.2418 29.9861 48.3632 30.1075 48.3632 30.2573C48.3632 30.4071 48.2418 30.5286 48.092 30.5286H45.6771C45.5273 30.5286 45.4059 30.4071 45.4059 30.2573C45.4059 30.1075 45.5273 29.9861 45.6771 29.9861H48.092ZM54.0068 29.9861C54.1566 29.9861 54.278 30.1075 54.278 30.2573C54.278 30.4071 54.1566 30.5286 54.0068 30.5286H51.5918C51.442 30.5286 51.3206 30.4071 51.3206 30.2573C51.3206 30.1075 51.442 29.9861 51.5918 29.9861H54.0068ZM59.9215 29.9861C60.0713 29.9861 60.1927 30.1075 60.1927 30.2573C60.1927 30.4071 60.0713 30.5286 59.9215 30.5286H57.5066C57.3568 30.5286 57.2354 30.4071 57.2354 30.2573C57.2354 30.1075 57.3568 29.9861 57.5066 29.9861H59.9215ZM65.8353 29.9861C65.9851 29.9861 66.1065 30.1075 66.1065 30.2573C66.1065 30.4071 65.9851 30.5286 65.8353 30.5286H63.4204C63.2706 30.5286 63.1491 30.4071 63.1491 30.2573C63.1491 30.1075 63.2706 29.9861 63.4204 29.9861H65.8353ZM71.75 29.9861C71.8998 29.9861 72.0213 30.1075 72.0213 30.2573C72.0213 30.4071 71.8998 30.5286 71.75 30.5286H69.3351C69.1853 30.5286 69.0639 30.4071 69.0639 30.2573C69.0639 30.1075 69.1853 29.9861 69.3351 29.9861H71.75ZM77.6649 29.9861C77.8147 29.9861 77.9361 30.1075 77.9361 30.2573C77.9361 30.4071 77.8147 30.5286 77.6649 30.5286H75.25C75.1002 30.5286 74.9787 30.4071 74.9787 30.2573C74.9787 30.1075 75.1002 29.9861 75.25 29.9861H77.6649ZM83.5796 29.9861C83.7294 29.9861 83.8509 30.1075 83.8509 30.2573C83.8509 30.4071 83.7294 30.5286 83.5796 30.5286H81.1647C81.0149 30.5286 80.8935 30.4071 80.8935 30.2573C80.8935 30.1075 81.0149 29.9861 81.1647 29.9861H83.5796ZM89.4934 29.9861C89.6432 29.9861 89.7646 30.1075 89.7646 30.2573C89.7646 30.4071 89.6432 30.5286 89.4934 30.5286H87.0785C86.9287 30.5286 86.8073 30.4071 86.8073 30.2573C86.8073 30.1075 86.9287 29.9861 87.0785 29.9861H89.4934ZM95.4082 29.9861C95.558 29.9861 95.6794 30.1075 95.6794 30.2573C95.6794 30.4071 95.558 30.5286 95.4082 30.5286H92.9932C92.8435 30.5286 92.722 30.4071 92.722 30.2573C92.722 30.1075 92.8435 29.9861 92.9932 29.9861H95.4082ZM101.323 29.9861C101.473 29.9861 101.594 30.1075 101.594 30.2573C101.594 30.4071 101.473 30.5286 101.323 30.5286H98.908C98.7582 30.5286 98.6368 30.4071 98.6368 30.2573C98.6368 30.1075 98.7582 29.9861 98.908 29.9861H101.323ZM107.238 29.9861C107.387 29.9861 107.509 30.1075 107.509 30.2573C107.509 30.4071 107.387 30.5286 107.238 30.5286H104.823C104.673 30.5286 104.552 30.4071 104.552 30.2573C104.552 30.1075 104.673 29.9861 104.823 29.9861H107.238ZM113.151 29.9861C113.301 29.9861 113.423 30.1075 113.423 30.2573C113.423 30.4071 113.301 30.5286 113.151 30.5286H110.738C110.588 30.5286 110.466 30.4071 110.466 30.2573C110.466 30.1075 110.588 29.9861 110.738 29.9861H113.151ZM119.066 29.9861C119.216 29.9861 119.338 30.1075 119.338 30.2573C119.338 30.4071 119.216 30.5286 119.066 30.5286H116.651C116.501 30.5286 116.38 30.4071 116.38 30.2573C116.38 30.1075 116.501 29.9861 116.651 29.9861H119.066ZM125.679 29.8462C125.733 29.9866 125.668 30.1454 125.528 30.1997C124.979 30.4127 124.388 30.5286 123.774 30.5286H122.566C122.417 30.5286 122.295 30.4071 122.295 30.2573C122.295 30.1075 122.417 29.9861 122.566 29.9861H123.774C124.322 29.9861 124.847 29.8847 125.335 29.6984C125.471 29.6465 125.627 29.7101 125.679 29.8462ZM128.502 24.8327V23.5293C128.502 23.3919 128.614 23.2805 128.751 23.2805C128.889 23.2805 129 23.3919 129 23.5293V24.8327C129 25.514 128.89 26.1682 128.689 26.7745C128.645 26.9048 128.498 26.9655 128.373 26.9092C128.244 26.8509 128.184 26.7027 128.228 26.5684C128.405 26.0264 128.502 25.4421 128.502 24.8327ZM128.751 17.0728C128.889 17.0728 129 17.1842 129 17.3217V19.9284C129 20.0658 128.889 20.1772 128.751 20.1772C128.614 20.1772 128.502 20.0658 128.502 19.9284V17.3217C128.502 17.1842 128.614 17.0728 128.751 17.0728ZM128.751 10.8642C128.889 10.8642 129 10.9756 129 11.1131V13.7196C129 13.8571 128.889 13.9685 128.751 13.9685C128.614 13.9685 128.502 13.8571 128.502 13.7196V11.1131C128.502 10.9756 128.614 10.8642 128.751 10.8642ZM128.751 4.65652C128.889 4.65652 129 4.76794 129 4.90539V7.51092C129 7.64837 128.889 7.7598 128.751 7.7598C128.614 7.7598 128.502 7.64837 128.502 7.51092V4.90539C128.502 4.76794 128.614 4.65652 128.751 4.65652ZM128.751 0C128.889 0 129 0.111427 129 0.248878V1.30329C129 1.44074 128.889 1.55217 128.751 1.55217C128.614 1.55217 128.502 1.44074 128.502 1.30329V0.248878C128.502 0.111426 128.614 0 128.751 0Z" stroke="#5F82FF" mask="url(#path-11-inside-1_1061_4048)"/>
    <path d="M20 6.40002C21.6568 6.40002 23 5.05688 23 3.40003C23 1.74318 21.6568 0.400024 20 0.400024C18.3431 0.400024 17 1.74318 17 3.40003C17 5.05688 18.3431 6.40002 20 6.40002Z" fill="white"/>
    <mask id="path-13-inside-2_1061_4048" fill="white">
      <path d="M273.5 204.257C273.638 204.257 273.75 204.369 273.75 204.507V205.5C273.75 205.638 273.638 205.75 273.5 205.75C273.362 205.75 273.25 205.638 273.25 205.5V204.507C273.25 204.369 273.362 204.257 273.5 204.257ZM273.5 198.287C273.638 198.287 273.75 198.399 273.75 198.537V201.022C273.75 201.16 273.638 201.272 273.5 201.272C273.362 201.272 273.25 201.16 273.25 201.022V198.537C273.25 198.399 273.362 198.287 273.5 198.287ZM273.5 192.316C273.638 192.316 273.75 192.428 273.75 192.566V195.052C273.75 195.19 273.638 195.302 273.5 195.302C273.362 195.302 273.25 195.19 273.25 195.052V192.566C273.25 192.428 273.362 192.316 273.5 192.316ZM273.5 186.346C273.638 186.346 273.75 186.458 273.75 186.596V189.081C273.75 189.219 273.638 189.331 273.5 189.331C273.362 189.331 273.25 189.219 273.25 189.081V186.596C273.25 186.458 273.362 186.346 273.5 186.346ZM273.5 180.375C273.638 180.375 273.75 180.487 273.75 180.625V183.11C273.75 183.248 273.638 183.36 273.5 183.36C273.362 183.36 273.25 183.248 273.25 183.11V180.625C273.25 180.487 273.362 180.375 273.5 180.375ZM273.5 174.404C273.638 174.404 273.75 174.516 273.75 174.654V177.14C273.75 177.278 273.638 177.39 273.5 177.39C273.362 177.39 273.25 177.278 273.25 177.14V174.654C273.25 174.516 273.362 174.404 273.5 174.404ZM273.5 168.434C273.638 168.434 273.75 168.546 273.75 168.684V171.169C273.75 171.307 273.638 171.419 273.5 171.419C273.362 171.419 273.25 171.307 273.25 171.169V168.684C273.25 168.546 273.362 168.434 273.5 168.434ZM273.5 162.463C273.638 162.463 273.75 162.575 273.75 162.713V165.198C273.75 165.336 273.638 165.448 273.5 165.448C273.362 165.448 273.25 165.336 273.25 165.198V162.713C273.25 162.575 273.362 162.463 273.5 162.463ZM273.5 156.492C273.638 156.492 273.75 156.604 273.75 156.742V159.228C273.75 159.366 273.638 159.478 273.5 159.478C273.362 159.478 273.25 159.366 273.25 159.228V156.742C273.25 156.604 273.362 156.492 273.5 156.492ZM273.5 150.522C273.638 150.522 273.75 150.634 273.75 150.772V153.258C273.75 153.396 273.638 153.508 273.5 153.508C273.362 153.508 273.25 153.396 273.25 153.258V150.772C273.25 150.634 273.362 150.522 273.5 150.522ZM273.5 144.552C273.638 144.552 273.75 144.664 273.75 144.802V147.287C273.75 147.425 273.638 147.537 273.5 147.537C273.362 147.537 273.25 147.425 273.25 147.287V144.802C273.25 144.664 273.362 144.552 273.5 144.552ZM273.5 138.581C273.638 138.581 273.75 138.693 273.75 138.831V141.316C273.75 141.454 273.638 141.566 273.5 141.566C273.362 141.566 273.25 141.454 273.25 141.316V138.831C273.25 138.693 273.362 138.581 273.5 138.581ZM273.5 132.61C273.638 132.61 273.75 132.722 273.75 132.86V135.346C273.75 135.484 273.638 135.596 273.5 135.596C273.362 135.596 273.25 135.484 273.25 135.346V132.86C273.25 132.722 273.362 132.61 273.5 132.61ZM273.5 126.64C273.638 126.64 273.75 126.752 273.75 126.89V129.375C273.75 129.513 273.638 129.625 273.5 129.625C273.362 129.625 273.25 129.513 273.25 129.375V126.89C273.25 126.752 273.362 126.64 273.5 126.64ZM273.5 120.669C273.638 120.669 273.75 120.781 273.75 120.919V123.404C273.75 123.542 273.638 123.654 273.5 123.654C273.362 123.654 273.25 123.542 273.25 123.404V120.919C273.25 120.781 273.362 120.669 273.5 120.669ZM273.5 114.698C273.638 114.698 273.75 114.81 273.75 114.948V117.434C273.75 117.572 273.638 117.684 273.5 117.684C273.362 117.684 273.25 117.572 273.25 117.434V114.948C273.25 114.81 273.362 114.698 273.5 114.698ZM273.5 108.728C273.638 108.728 273.75 108.84 273.75 108.978V111.463C273.75 111.601 273.638 111.713 273.5 111.713C273.362 111.713 273.25 111.601 273.25 111.463V108.978C273.25 108.84 273.362 108.728 273.5 108.728ZM273.25 104.25C273.25 103.694 273.155 103.16 272.979 102.664C272.933 102.534 272.993 102.389 273.12 102.336C273.248 102.283 273.396 102.344 273.442 102.474C273.641 103.029 273.75 103.627 273.75 104.25V105.492C273.75 105.63 273.638 105.742 273.5 105.742C273.362 105.742 273.25 105.63 273.25 105.492V104.25ZM268.5 99C269.123 99 269.721 99.1086 270.276 99.3081C270.406 99.3549 270.467 99.5021 270.414 99.6299C270.361 99.7572 270.215 99.8169 270.085 99.7708C269.59 99.5955 269.057 99.5 268.5 99.5H267.3C267.162 99.5 267.05 99.3881 267.05 99.25C267.05 99.1119 267.162 99 267.3 99H268.5ZM211.7 99C211.838 99 211.95 99.1119 211.95 99.25C211.95 99.3881 211.838 99.5 211.7 99.5H210.75C210.612 99.5 210.5 99.3881 210.5 99.25C210.5 99.1119 210.612 99 210.75 99H211.7ZM217.5 99C217.638 99 217.75 99.1119 217.75 99.25C217.75 99.3881 217.638 99.5 217.5 99.5H215.1C214.962 99.5 214.85 99.3881 214.85 99.25C214.85 99.1119 214.962 99 215.1 99H217.5ZM223.3 99C223.438 99 223.55 99.1119 223.55 99.25C223.55 99.3881 223.438 99.5 223.3 99.5H220.9C220.762 99.5 220.65 99.3881 220.65 99.25C220.65 99.1119 220.762 99 220.9 99H223.3ZM229.1 99C229.238 99 229.35 99.1119 229.35 99.25C229.35 99.3881 229.238 99.5 229.1 99.5H226.7C226.562 99.5 226.45 99.3881 226.45 99.25C226.45 99.1119 226.562 99 226.7 99H229.1ZM234.9 99C235.038 99 235.15 99.1119 235.15 99.25C235.15 99.3881 235.038 99.5 234.9 99.5H232.5C232.362 99.5 232.25 99.3881 232.25 99.25C232.25 99.1119 232.362 99 232.5 99H234.9ZM240.7 99C240.838 99 240.95 99.1119 240.95 99.25C240.95 99.3881 240.838 99.5 240.7 99.5H238.3C238.162 99.5 238.05 99.3881 238.05 99.25C238.05 99.1119 238.162 99 238.3 99H240.7ZM246.5 99C246.638 99 246.75 99.1119 246.75 99.25C246.75 99.3881 246.638 99.5 246.5 99.5H244.1C243.962 99.5 243.85 99.3881 243.85 99.25C243.85 99.1119 243.962 99 244.1 99H246.5ZM252.3 99C252.438 99 252.55 99.1119 252.55 99.25C252.55 99.3881 252.438 99.5 252.3 99.5H249.9C249.762 99.5 249.65 99.3881 249.65 99.25C249.65 99.1119 249.762 99 249.9 99H252.3ZM258.1 99C258.238 99 258.35 99.1119 258.35 99.25C258.35 99.3881 258.238 99.5 258.1 99.5H255.7C255.562 99.5 255.45 99.3881 255.45 99.25C255.45 99.1119 255.562 99 255.7 99H258.1ZM263.9 99C264.038 99 264.15 99.1119 264.15 99.25C264.15 99.3881 264.038 99.5 263.9 99.5H261.5C261.362 99.5 261.25 99.3881 261.25 99.25C261.25 99.1119 261.362 99 261.5 99H263.9Z"/>
    </mask>
    <path d="M273.5 204.257C273.638 204.257 273.75 204.369 273.75 204.507V205.5C273.75 205.638 273.638 205.75 273.5 205.75C273.362 205.75 273.25 205.638 273.25 205.5V204.507C273.25 204.369 273.362 204.257 273.5 204.257ZM273.5 198.287C273.638 198.287 273.75 198.399 273.75 198.537V201.022C273.75 201.16 273.638 201.272 273.5 201.272C273.362 201.272 273.25 201.16 273.25 201.022V198.537C273.25 198.399 273.362 198.287 273.5 198.287ZM273.5 192.316C273.638 192.316 273.75 192.428 273.75 192.566V195.052C273.75 195.19 273.638 195.302 273.5 195.302C273.362 195.302 273.25 195.19 273.25 195.052V192.566C273.25 192.428 273.362 192.316 273.5 192.316ZM273.5 186.346C273.638 186.346 273.75 186.458 273.75 186.596V189.081C273.75 189.219 273.638 189.331 273.5 189.331C273.362 189.331 273.25 189.219 273.25 189.081V186.596C273.25 186.458 273.362 186.346 273.5 186.346ZM273.5 180.375C273.638 180.375 273.75 180.487 273.75 180.625V183.11C273.75 183.248 273.638 183.36 273.5 183.36C273.362 183.36 273.25 183.248 273.25 183.11V180.625C273.25 180.487 273.362 180.375 273.5 180.375ZM273.5 174.404C273.638 174.404 273.75 174.516 273.75 174.654V177.14C273.75 177.278 273.638 177.39 273.5 177.39C273.362 177.39 273.25 177.278 273.25 177.14V174.654C273.25 174.516 273.362 174.404 273.5 174.404ZM273.5 168.434C273.638 168.434 273.75 168.546 273.75 168.684V171.169C273.75 171.307 273.638 171.419 273.5 171.419C273.362 171.419 273.25 171.307 273.25 171.169V168.684C273.25 168.546 273.362 168.434 273.5 168.434ZM273.5 162.463C273.638 162.463 273.75 162.575 273.75 162.713V165.198C273.75 165.336 273.638 165.448 273.5 165.448C273.362 165.448 273.25 165.336 273.25 165.198V162.713C273.25 162.575 273.362 162.463 273.5 162.463ZM273.5 156.492C273.638 156.492 273.75 156.604 273.75 156.742V159.228C273.75 159.366 273.638 159.478 273.5 159.478C273.362 159.478 273.25 159.366 273.25 159.228V156.742C273.25 156.604 273.362 156.492 273.5 156.492ZM273.5 150.522C273.638 150.522 273.75 150.634 273.75 150.772V153.258C273.75 153.396 273.638 153.508 273.5 153.508C273.362 153.508 273.25 153.396 273.25 153.258V150.772C273.25 150.634 273.362 150.522 273.5 150.522ZM273.5 144.552C273.638 144.552 273.75 144.664 273.75 144.802V147.287C273.75 147.425 273.638 147.537 273.5 147.537C273.362 147.537 273.25 147.425 273.25 147.287V144.802C273.25 144.664 273.362 144.552 273.5 144.552ZM273.5 138.581C273.638 138.581 273.75 138.693 273.75 138.831V141.316C273.75 141.454 273.638 141.566 273.5 141.566C273.362 141.566 273.25 141.454 273.25 141.316V138.831C273.25 138.693 273.362 138.581 273.5 138.581ZM273.5 132.61C273.638 132.61 273.75 132.722 273.75 132.86V135.346C273.75 135.484 273.638 135.596 273.5 135.596C273.362 135.596 273.25 135.484 273.25 135.346V132.86C273.25 132.722 273.362 132.61 273.5 132.61ZM273.5 126.64C273.638 126.64 273.75 126.752 273.75 126.89V129.375C273.75 129.513 273.638 129.625 273.5 129.625C273.362 129.625 273.25 129.513 273.25 129.375V126.89C273.25 126.752 273.362 126.64 273.5 126.64ZM273.5 120.669C273.638 120.669 273.75 120.781 273.75 120.919V123.404C273.75 123.542 273.638 123.654 273.5 123.654C273.362 123.654 273.25 123.542 273.25 123.404V120.919C273.25 120.781 273.362 120.669 273.5 120.669ZM273.5 114.698C273.638 114.698 273.75 114.81 273.75 114.948V117.434C273.75 117.572 273.638 117.684 273.5 117.684C273.362 117.684 273.25 117.572 273.25 117.434V114.948C273.25 114.81 273.362 114.698 273.5 114.698ZM273.5 108.728C273.638 108.728 273.75 108.84 273.75 108.978V111.463C273.75 111.601 273.638 111.713 273.5 111.713C273.362 111.713 273.25 111.601 273.25 111.463V108.978C273.25 108.84 273.362 108.728 273.5 108.728ZM273.25 104.25C273.25 103.694 273.155 103.16 272.979 102.664C272.933 102.534 272.993 102.389 273.12 102.336C273.248 102.283 273.396 102.344 273.442 102.474C273.641 103.029 273.75 103.627 273.75 104.25V105.492C273.75 105.63 273.638 105.742 273.5 105.742C273.362 105.742 273.25 105.63 273.25 105.492V104.25ZM268.5 99C269.123 99 269.721 99.1086 270.276 99.3081C270.406 99.3549 270.467 99.5021 270.414 99.6299C270.361 99.7572 270.215 99.8169 270.085 99.7708C269.59 99.5955 269.057 99.5 268.5 99.5H267.3C267.162 99.5 267.05 99.3881 267.05 99.25C267.05 99.1119 267.162 99 267.3 99H268.5ZM211.7 99C211.838 99 211.95 99.1119 211.95 99.25C211.95 99.3881 211.838 99.5 211.7 99.5H210.75C210.612 99.5 210.5 99.3881 210.5 99.25C210.5 99.1119 210.612 99 210.75 99H211.7ZM217.5 99C217.638 99 217.75 99.1119 217.75 99.25C217.75 99.3881 217.638 99.5 217.5 99.5H215.1C214.962 99.5 214.85 99.3881 214.85 99.25C214.85 99.1119 214.962 99 215.1 99H217.5ZM223.3 99C223.438 99 223.55 99.1119 223.55 99.25C223.55 99.3881 223.438 99.5 223.3 99.5H220.9C220.762 99.5 220.65 99.3881 220.65 99.25C220.65 99.1119 220.762 99 220.9 99H223.3ZM229.1 99C229.238 99 229.35 99.1119 229.35 99.25C229.35 99.3881 229.238 99.5 229.1 99.5H226.7C226.562 99.5 226.45 99.3881 226.45 99.25C226.45 99.1119 226.562 99 226.7 99H229.1ZM234.9 99C235.038 99 235.15 99.1119 235.15 99.25C235.15 99.3881 235.038 99.5 234.9 99.5H232.5C232.362 99.5 232.25 99.3881 232.25 99.25C232.25 99.1119 232.362 99 232.5 99H234.9ZM240.7 99C240.838 99 240.95 99.1119 240.95 99.25C240.95 99.3881 240.838 99.5 240.7 99.5H238.3C238.162 99.5 238.05 99.3881 238.05 99.25C238.05 99.1119 238.162 99 238.3 99H240.7ZM246.5 99C246.638 99 246.75 99.1119 246.75 99.25C246.75 99.3881 246.638 99.5 246.5 99.5H244.1C243.962 99.5 243.85 99.3881 243.85 99.25C243.85 99.1119 243.962 99 244.1 99H246.5ZM252.3 99C252.438 99 252.55 99.1119 252.55 99.25C252.55 99.3881 252.438 99.5 252.3 99.5H249.9C249.762 99.5 249.65 99.3881 249.65 99.25C249.65 99.1119 249.762 99 249.9 99H252.3ZM258.1 99C258.238 99 258.35 99.1119 258.35 99.25C258.35 99.3881 258.238 99.5 258.1 99.5H255.7C255.562 99.5 255.45 99.3881 255.45 99.25C255.45 99.1119 255.562 99 255.7 99H258.1ZM263.9 99C264.038 99 264.15 99.1119 264.15 99.25C264.15 99.3881 264.038 99.5 263.9 99.5H261.5C261.362 99.5 261.25 99.3881 261.25 99.25C261.25 99.1119 261.362 99 261.5 99H263.9Z" stroke="#5F82FF" mask="url(#path-13-inside-2_1061_4048)"/>
    <path d="M253.7 102.4C255.191 102.4 256.4 101.191 256.4 99.7C256.4 98.2088 255.191 97 253.7 97C252.209 97 251 98.2088 251 99.7C251 101.191 252.209 102.4 253.7 102.4Z" fill="#9747FF"/>
    <path d="M71.7 32.4C73.1912 32.4 74.4 31.1912 74.4 29.7C74.4 28.2088 73.1912 27 71.7 27C70.2088 27 69 28.2088 69 29.7C69 31.1912 70.2088 32.4 71.7 32.4Z" fill="#9747FF"/>
    <mask id="path-16-inside-3_1061_4048" fill="white">
      <path d="Mnan nanL128 196.532V198Lnan nanL128 198V196.532Lnan nanZMnan nanL128 190.659V193.596Lnan nanL128 193.596V190.659Lnan nanZMnan nanL128 184.786V187.723Lnan nanL128 187.723V184.786Lnan nanZMnan nanL128 178.913V181.849Lnan nanL128 181.849V178.913Lnan nanZMnan nanL128 173.04V175.977Lnan nanL128 175.977V173.04Lnan nanZMnan nanL128 167.167V170.104Lnan nanL128 170.104V167.167Lnan nanZM128 161.333Lnan nanL128 161.333V164.231Lnan nanL128 164.231V161.333ZMnan nanL128 155.613V158.472Lnan nanL128 158.472V155.613Lnan nanZMnan nanL128 149.892V152.752Lnan nanL128 152.752V149.892Lnan nanZMnan nanL128 144.172V147.031Lnan nanL128 147.031V144.172Lnan nanZMnan nanL128 138.452V141.311Lnan nanL128 141.311V138.452Lnan nanZMnan nanL128 132.731V135.591Lnan nanL128 135.591V132.731Lnan nanZMnan nanL128 127.011V129.87Lnan nanL128 129.87V127.011Lnan nanZMnan nanL128 121.291V124.15Lnan nanL128 124.15V121.291Lnan nanZMnan nanL128 117V118.43Lnan nanL128 118.43V117Lnan nanZ"/>
    </mask>
    <path d="M128 196.532H127.5V198H128H128.5V196.532H128ZM128 198H128.5V196.532H128H127.5V198H128ZM128 190.659H127.5V193.596H128H128.5V190.659H128ZM128 193.596H128.5V190.659H128H127.5V193.596H128ZM128 184.786H127.5V187.723H128H128.5V184.786H128ZM128 187.723H128.5V184.786H128H127.5V187.723H128ZM128 178.913H127.5V181.849H128H128.5V178.913H128ZM128 181.849H128.5V178.913H128H127.5V181.849H128ZM128 173.04H127.5V175.977H128H128.5V173.04H128ZM128 175.977H128.5V173.04H128H127.5V175.977H128ZM128 167.167H127.5V170.104H128H128.5V167.167H128ZM128 170.104H128.5V167.167H128H127.5V170.104H128ZM128 161.333H127.5V164.231H128H128.5V161.333H128ZM128 164.231H128.5V161.333H128H127.5V164.231H128ZM128 155.613H127.5V158.472H128H128.5V155.613H128ZM128 158.472H128.5V155.613H128H127.5V158.472H128ZM128 149.892H127.5V152.752H128H128.5V149.892H128ZM128 152.752H128.5V149.892H128H127.5V152.752H128ZM128 144.172H127.5V147.031H128H128.5V144.172H128ZM128 147.031H128.5V144.172H128H127.5V147.031H128ZM128 138.452H127.5V141.311H128H128.5V138.452H128ZM128 141.311H128.5V138.452H128H127.5V141.311H128ZM128 132.731H127.5V135.591H128H128.5V132.731H128ZM128 135.591H128.5V132.731H128H127.5V135.591H128ZM128 127.011H127.5V129.87H128H128.5V127.011H128ZM128 129.87H128.5V127.011H128H127.5V129.87H128ZM128 121.291H127.5V124.15H128H128.5V121.291H128ZM128 124.15H128.5V121.291H128H127.5V124.15H128ZM128 117H127.5V118.43H128H128.5V117H128ZM128 118.43H128.5V117H128H127.5V118.43H128Z" fill="#5F82FF" mask="url(#path-16-inside-3_1061_4048)"/>
    <path d="M128 181.4C129.491 181.4 130.7 180.191 130.7 178.7C130.7 177.209 129.491 176 128 176C126.509 176 125.3 177.209 125.3 178.7C125.3 180.191 126.509 181.4 128 181.4Z" fill="#9747FF"/>
  </g>
  <defs>
    <clipPath id="clip0_1061_4048">
      <rect width="257" height="199" fill="white" transform="translate(17)"/>
    </clipPath>
  </defs>
</svg>
