<svg width="291" height="201" viewBox="0 0 291 201" fill="none" xmlns="http://www.w3.org/2000/svg">
  <g clip-path="url(#clip0_1443_5940)">
    <path d="M77.5 74.5C77.5 71.1863 80.1863 68.5 83.5 68.5H207.5C210.814 68.5 213.5 71.1863 213.5 74.5V125.5C213.5 128.814 210.814 131.5 207.5 131.5H83.5C80.1863 131.5 77.5 128.814 77.5 125.5V74.5Z" fill="#081A72"/>
    <rect x="86.5" y="77.5" width="37" height="3" rx="1.5" fill="#CACED4"/>
    <path d="M90.5 92H200.5C202.433 92 204 93.567 204 95.5V102.5C204 104.433 202.433 106 200.5 106H90.5C88.567 106 87 104.433 87 102.5V95.5C87 93.567 88.567 92 90.5 92Z" stroke="#CACED4"/>
    <rect x="92.5" y="97.5" width="32" height="3" rx="1.5" fill="#5F82FF"/>
    <path d="M149.5 113H170.5C171.328 113 172 113.672 172 114.5V120.5C172 121.328 171.328 122 170.5 122H149.5C148.672 122 148 121.328 148 120.5V114.5C148 113.672 148.672 113 149.5 113Z" fill="#CACED4"/>
    <path d="M149.5 113H170.5C171.328 113 172 113.672 172 114.5V120.5C172 121.328 171.328 122 170.5 122H149.5C148.672 122 148 121.328 148 120.5V114.5C148 113.672 148.672 113 149.5 113Z" stroke="#676A70"/>
    <rect x="151.5" y="116.5" width="17" height="2" rx="1" fill="#676A70"/>
    <path d="M177.5 114.5C177.5 113.395 178.395 112.5 179.5 112.5H202.5C203.605 112.5 204.5 113.395 204.5 114.5V120.5C204.5 121.605 203.605 122.5 202.5 122.5H179.5C178.395 122.5 177.5 121.605 177.5 120.5V114.5Z" fill="#9747FF"/>
    <rect x="181.5" y="116.5" width="19" height="2" rx="1" fill="white"/>
  </g>
  <path d="M83.5 69H207.5C210.538 69 213 71.4624 213 74.5V125.5C213 128.538 210.538 131 207.5 131H83.5C80.4624 131 78 128.538 78 125.5V74.5C78 71.4624 80.4624 69 83.5 69Z" stroke="#9747FF"/>
  <path d="M154.818 68.5L154.818 36.5663C154.818 34.3572 156.609 32.5663 158.818 32.5663L168.5 32.5663C170.709 32.5663 172.5 30.7755 172.5 28.5663L172.5 0.124428" stroke="#5F82FF" stroke-width="0.5" stroke-dasharray="3 3"/>
  <path d="M218.846 200.306L218.846 137.579C218.846 135.369 220.637 133.579 222.846 133.579L233.647 133.579C235.857 133.579 237.647 131.788 237.647 129.579L237.647 122.269C237.647 120.06 235.857 118.269 233.647 118.269L213.889 118.269" stroke="#5F82FF" stroke-width="0.5" stroke-dasharray="3 3"/>
  <path d="M128.162 199.996L128.162 130.629" stroke="#5F82FF" stroke-width="0.5" stroke-dasharray="3 3"/>
  <path d="M172.5 16.4C173.991 16.4 175.2 15.1912 175.2 13.7C175.2 12.2088 173.991 11 172.5 11C171.009 11 169.8 12.2088 169.8 13.7C169.8 15.1912 171.009 16.4 172.5 16.4Z" fill="white"/>
  <path d="M128.461 171.312C130.118 171.312 131.461 169.969 131.461 168.313C131.461 166.656 130.118 165.312 128.461 165.312C126.805 165.312 125.461 166.656 125.461 168.313C125.461 169.969 126.805 171.312 128.461 171.312Z" fill="#5F82FF"/>
  <path d="M77.4999 91.5005H48.3169C46.1078 91.5005 44.3169 89.7096 44.3169 87.5005L44.3169 0.553731" stroke="#5F82FF" stroke-width="0.5" stroke-dasharray="3 3"/>
  <defs>
    <clipPath id="clip0_1443_5940">
      <path d="M77.5 74.5C77.5 71.1863 80.1863 68.5 83.5 68.5H207.5C210.814 68.5 213.5 71.1863 213.5 74.5V125.5C213.5 128.814 210.814 131.5 207.5 131.5H83.5C80.1863 131.5 77.5 128.814 77.5 125.5V74.5Z" fill="white"/>
    </clipPath>
  </defs>
</svg>
