<svg width="291" height="200" viewBox="0 0 291 200" fill="none" xmlns="http://www.w3.org/2000/svg">
  <mask id="path-2-outside-1_1061_4801" maskUnits="userSpaceOnUse" x="49.5459" y="73.0656" width="135" height="64" fill="black">
    <rect fill="white" x="49.5459" y="73.0656" width="135" height="64"/>
    <path d="M51.5459 79.0656C51.5459 76.8565 53.3368 75.0656 55.5459 75.0656H178.546C180.755 75.0656 182.546 76.8565 182.546 79.0656V131.066C182.546 133.275 180.755 135.066 178.546 135.066H55.5459C53.3368 135.066 51.5459 133.275 51.5459 131.066V79.0656Z"/>
  </mask>
  <path d="M55.5459 75.0656V76.5656H178.546V75.0656V73.5656H55.5459V75.0656ZM182.546 79.0656H181.046V131.066H182.546H184.046V79.0656H182.546ZM178.546 135.066V133.566H55.5459V135.066V136.566H178.546V135.066ZM51.5459 131.066H53.0459V79.0656H51.5459H50.0459V131.066H51.5459ZM55.5459 135.066V133.566C54.1652 133.566 53.0459 132.446 53.0459 131.066H51.5459H50.0459C50.0459 134.103 52.5083 136.566 55.5459 136.566V135.066ZM182.546 131.066H181.046C181.046 132.446 179.927 133.566 178.546 133.566V135.066V136.566C181.583 136.566 184.046 134.103 184.046 131.066H182.546ZM178.546 75.0656V76.5656C179.927 76.5656 181.046 77.6849 181.046 79.0656H182.546H184.046C184.046 76.0281 181.583 73.5656 178.546 73.5656V75.0656ZM55.5459 75.0656V73.5656C52.5083 73.5656 50.0459 76.0281 50.0459 79.0656H51.5459H53.0459C53.0459 77.6849 54.1652 76.5656 55.5459 76.5656V75.0656Z" fill="#5F82FF" mask="url(#path-2-outside-1_1061_4801)"/>
  <mask id="path-4-inside-2_1061_4801" fill="white">
    <path d="M51.5459 79.0656C51.5459 76.8565 53.3368 75.0656 55.5459 75.0656H178.546C180.755 75.0656 182.546 76.8565 182.546 79.0656V95.0656H51.5459V79.0656Z"/>
  </mask>
  <path d="M51.5459 79.0656C51.5459 76.8565 53.3368 75.0656 55.5459 75.0656H178.546C180.755 75.0656 182.546 76.8565 182.546 79.0656V95.0656H51.5459V79.0656Z" fill="#041059"/>
  <path d="M51.5459 75.0656H182.546H51.5459ZM182.546 96.5656H51.5459V93.5656H182.546V96.5656ZM51.5459 95.0656V75.0656V95.0656ZM182.546 75.0656V95.0656V75.0656Z" fill="#5F82FF" mask="url(#path-4-inside-2_1061_4801)"/>
  <path d="M67.7266 85.0656H150.185" stroke="#5F82FF" stroke-width="1.5" stroke-linecap="round" stroke-linejoin="round"/>
  <path d="M163.13 88.3017L166.366 85.0656L163.13 81.8295" stroke="#5F82FF" stroke-width="1.5" stroke-linecap="round" stroke-linejoin="round"/>
  <mask id="path-8-inside-3_1061_4801" fill="white">
    <path d="M51.5459 95.0656H182.546V115.066H51.5459V95.0656Z"/>
  </mask>
  <path d="M182.546 115.066V113.566H51.5459V115.066V116.566H182.546V115.066Z" fill="#5F82FF" mask="url(#path-8-inside-3_1061_4801)"/>
  <path d="M67.7266 105.066H150.185" stroke="#9747FF" stroke-width="1.5" stroke-linecap="round" stroke-linejoin="round"/>
  <path d="M163.13 108.302L166.366 105.066L163.13 101.83" stroke="#9747FF" stroke-width="1.5" stroke-linecap="round" stroke-linejoin="round"/>
  <path d="M67.7266 125.066H150.185" stroke="#9747FF" stroke-width="1.5" stroke-linecap="round" stroke-linejoin="round"/>
  <path d="M163.13 128.302L166.366 125.066L163.13 121.83" stroke="#9747FF" stroke-width="1.5" stroke-linecap="round" stroke-linejoin="round"/>
  <path d="M199.156 200L199.156 140.893C199.156 138.684 200.947 136.893 203.156 136.893L231.798 136.893C234.007 136.893 235.798 135.102 235.798 132.893L235.798 114.088" stroke="#5F82FF" stroke-width="0.5" stroke-dasharray="3 3"/>
  <path d="M199.575 174.131C201.066 174.131 202.275 172.922 202.275 171.431C202.275 169.94 201.066 168.731 199.575 168.731C198.084 168.731 196.875 169.94 196.875 171.431C196.875 172.922 198.084 174.131 199.575 174.131Z" fill="#9747FF"/>
  <path d="M75 28.2428C76.6568 28.2428 78 26.8997 78 25.2428C78 23.586 76.6568 22.2428 75 22.2428C73.3431 22.2428 72 23.586 72 25.2428C72 26.8997 73.3431 28.2428 75 28.2428Z" fill="white"/>
  <path d="M204.975 41.4C206.467 41.4 207.675 40.1912 207.675 38.7C207.675 37.2088 206.467 36 204.975 36C203.484 36 202.275 37.2088 202.275 38.7C202.275 40.1912 203.484 41.4 204.975 41.4Z" fill="#081A72"/>
  <path d="M149.046 74.2576L149.046 -7.62939e-06" stroke="#5F82FF" stroke-width="0.5" stroke-dasharray="3 3"/>
  <mask id="path-19-outside-4_1061_4801" maskUnits="userSpaceOnUse" x="185.546" y="73.0656" width="63" height="42" fill="black">
    <rect fill="white" x="185.546" y="73.0656" width="63" height="42"/>
    <path d="M187.546 79.0656C187.546 76.8565 189.337 75.0656 191.546 75.0656H242.546C244.755 75.0656 246.546 76.8565 246.546 79.0656V109.066C246.546 111.275 244.755 113.066 242.546 113.066H191.546C189.337 113.066 187.546 111.275 187.546 109.066V79.0656Z"/>
  </mask>
  <path d="M191.546 75.0656V76.5656H242.546V75.0656V73.5656H191.546V75.0656ZM246.546 79.0656H245.046V109.066H246.546H248.046V79.0656H246.546ZM242.546 113.066V111.566H191.546V113.066V114.566H242.546V113.066ZM187.546 109.066H189.046V79.0656H187.546H186.046V109.066H187.546ZM191.546 113.066V111.566C190.165 111.566 189.046 110.446 189.046 109.066H187.546H186.046C186.046 112.103 188.508 114.566 191.546 114.566V113.066ZM246.546 109.066H245.046C245.046 110.446 243.927 111.566 242.546 111.566V113.066V114.566C245.583 114.566 248.046 112.103 248.046 109.066H246.546ZM242.546 75.0656V76.5656C243.927 76.5656 245.046 77.6849 245.046 79.0656H246.546H248.046C248.046 76.0281 245.583 73.5656 242.546 73.5656V75.0656ZM191.546 75.0656V73.5656C188.508 73.5656 186.046 76.0281 186.046 79.0656H187.546H189.046C189.046 77.6849 190.165 76.5656 191.546 76.5656V75.0656Z" fill="#5F82FF" mask="url(#path-19-outside-4_1061_4801)"/>
  <mask id="path-21-inside-5_1061_4801" fill="white">
    <path d="M187.546 79.0656C187.546 76.8565 189.337 75.0656 191.546 75.0656H242.546C244.755 75.0656 246.546 76.8565 246.546 79.0656V95.0656H187.546V79.0656Z"/>
  </mask>
  <path d="M187.546 79.0656C187.546 76.8565 189.337 75.0656 191.546 75.0656H242.546C244.755 75.0656 246.546 76.8565 246.546 79.0656V95.0656H187.546V79.0656Z" fill="#081A72"/>
  <path d="M187.546 75.0656H246.546H187.546ZM246.546 96.5656H187.546V93.5656H246.546V96.5656ZM187.546 95.0656V75.0656V95.0656ZM246.546 75.0656V95.0656V75.0656Z" fill="#5F82FF" mask="url(#path-21-inside-5_1061_4801)"/>
  <path d="M203.727 85.0656H230.366" stroke="white" stroke-width="1.5" stroke-linecap="round" stroke-linejoin="round"/>
  <path d="M203.727 104.066H230.366" stroke="#9747FF" stroke-width="1.5" stroke-linecap="round" stroke-linejoin="round"/>
</svg>
