<svg width="291" height="200" viewBox="0 0 291 200" fill="none" xmlns="http://www.w3.org/2000/svg">
  <g clip-path="url(#clip0_1421_17457)">
    <path d="M43.5 95L40.5 98L43.5 101" stroke="#CACED4" stroke-linecap="round" stroke-linejoin="round"/>
    <path d="M247.5 101L250.5 98L247.5 95" stroke="#CACED4" stroke-linecap="round" stroke-linejoin="round"/>
    <g clip-path="url(#clip1_1421_17457)">
      <path d="M71.6914 103V94.4893L69.1758 95.5488V94.2773L72.7988 92.9102H73.0039V103H71.6914Z" fill="#CACED4"/>
    </g>
    <g clip-path="url(#clip2_1421_17457)">
      <path d="M99.752 103V102.043L103.307 98.2148C103.781 97.7135 104.138 97.2692 104.38 96.8818C104.621 96.4945 104.742 96.0729 104.742 95.6172C104.742 95.1615 104.587 94.765 104.277 94.4277C103.972 94.0905 103.546 93.9219 102.999 93.9219C102.452 93.9219 101.99 94.1019 101.611 94.4619C101.238 94.8219 101.051 95.321 101.051 95.959V96.0273H99.752V95.959C99.752 95.0475 100.062 94.3001 100.682 93.7168C101.306 93.1335 102.078 92.8418 102.999 92.8418C103.91 92.8418 104.644 93.1107 105.2 93.6484C105.761 94.1862 106.041 94.8197 106.041 95.5488C106.041 96.196 105.859 96.7839 105.494 97.3125C105.13 97.8411 104.685 98.3812 104.161 98.9326L101.379 101.865H106.314V103H99.752Z" fill="#CACED4"/>
    </g>
    <g clip-path="url(#clip3_1421_17457)">
      <path d="M135.094 102.296C135.094 102.059 135.169 101.858 135.319 101.694C135.474 101.526 135.695 101.441 135.982 101.441C136.27 101.441 136.488 101.526 136.639 101.694C136.794 101.858 136.871 102.059 136.871 102.296C136.871 102.533 136.794 102.736 136.639 102.904C136.488 103.068 136.27 103.15 135.982 103.15C135.695 103.15 135.474 103.068 135.319 102.904C135.169 102.736 135.094 102.533 135.094 102.296ZM145.895 102.296C145.895 102.059 145.97 101.858 146.12 101.694C146.275 101.526 146.496 101.441 146.783 101.441C147.07 101.441 147.289 101.526 147.439 101.694C147.594 101.858 147.672 102.059 147.672 102.296C147.672 102.533 147.594 102.736 147.439 102.904C147.289 103.068 147.07 103.15 146.783 103.15C146.496 103.15 146.275 103.068 146.12 102.904C145.97 102.736 145.895 102.533 145.895 102.296ZM156.695 102.296C156.695 102.059 156.771 101.858 156.921 101.694C157.076 101.526 157.297 101.441 157.584 101.441C157.871 101.441 158.09 101.526 158.24 101.694C158.395 101.858 158.473 102.059 158.473 102.296C158.473 102.533 158.395 102.736 158.24 102.904C158.09 103.068 157.871 103.15 157.584 103.15C157.297 103.15 157.076 103.068 156.921 102.904C156.771 102.736 156.695 102.533 156.695 102.296Z" fill="#CACED4"/>
    </g>
    <g clip-path="url(#clip4_1421_17457)">
      <path d="M215.191 103V94.4893L212.676 95.5488V94.2773L216.299 92.9102H216.504V103H215.191ZM220.154 99.8555V96.1914C220.154 95.1888 220.437 94.3799 221.002 93.7646C221.567 93.1494 222.351 92.8418 223.354 92.8418C224.347 92.8418 225.129 93.1494 225.698 93.7646C226.268 94.3799 226.553 95.1888 226.553 96.1914V99.8555C226.553 100.858 226.268 101.667 225.698 102.282C225.129 102.897 224.347 103.205 223.354 103.205C222.351 103.205 221.567 102.897 221.002 102.282C220.437 101.667 220.154 100.858 220.154 99.8555ZM221.48 99.9238C221.48 100.562 221.633 101.088 221.938 101.503C222.244 101.918 222.715 102.125 223.354 102.125C223.992 102.125 224.463 101.918 224.769 101.503C225.074 101.088 225.227 100.562 225.227 99.9238V96.123C225.227 95.485 225.074 94.9587 224.769 94.5439C224.463 94.1292 223.992 93.9219 223.354 93.9219C222.715 93.9219 222.244 94.1292 221.938 94.5439C221.633 94.9587 221.48 95.485 221.48 96.123V99.9238Z" fill="#CACED4"/>
    </g>
    <path d="M177 82.5H201C202.933 82.5 204.5 84.067 204.5 86V110C204.5 111.933 202.933 113.5 201 113.5H177C175.067 113.5 173.5 111.933 173.5 110V86C173.5 84.067 175.067 82.5 177 82.5Z" fill="#9747FF"/>
    <path d="M177 82.5H201C202.933 82.5 204.5 84.067 204.5 86V110C204.5 111.933 202.933 113.5 201 113.5H177C175.067 113.5 173.5 111.933 173.5 110V86C173.5 84.067 175.067 82.5 177 82.5Z" stroke="#9747FF"/>
    <g clip-path="url(#clip5_1421_17457)">
      <path d="M185.492 96.1504C185.492 95.166 185.804 94.3685 186.429 93.7578C187.053 93.1471 187.844 92.8418 188.801 92.8418C189.758 92.8418 190.58 93.1882 191.269 93.8809C191.957 94.5736 192.301 95.6947 192.301 97.2441V97.4492C192.301 99.0579 191.831 100.386 190.893 101.435C189.958 102.478 188.625 103 186.894 103H186.75V101.92H186.887C188.163 101.92 189.17 101.555 189.908 100.826C190.646 100.092 191.016 98.9896 191.016 97.5176V97.1758C191.016 95.9909 190.806 95.1523 190.387 94.6602C189.967 94.168 189.439 93.9219 188.801 93.9219C188.163 93.9219 187.668 94.1178 187.317 94.5098C186.966 94.8971 186.791 95.444 186.791 96.1504C186.791 96.8568 186.966 97.4036 187.317 97.791C187.668 98.1738 188.163 98.3652 188.801 98.3652C189.393 98.3652 189.917 98.1738 190.373 97.791C190.829 97.4036 191.057 96.8568 191.057 96.1504H191.535C191.535 97.1348 191.262 97.93 190.715 98.5361C190.168 99.1423 189.439 99.4453 188.527 99.4453C187.62 99.4453 186.887 99.1423 186.326 98.5361C185.77 97.93 185.492 97.1348 185.492 96.1504Z" fill="white"/>
    </g>
    <line x1="199.75" y1="200" x2="199.75" y2="114" stroke="#5F82FF" stroke-width="0.5" stroke-dasharray="3 3"/>
    <path d="M181.5 81.6211V31.7378C181.5 29.5287 179.709 27.7378 177.5 27.7378L79 27.7378C76.7909 27.7378 75 25.947 75 23.7378L75 -0.99994" stroke="#5F82FF" stroke-width="0.5" stroke-dasharray="3 3"/>
    <path d="M119.7 30.4C121.191 30.4 122.4 29.1912 122.4 27.7C122.4 26.2088 121.191 25 119.7 25C118.209 25 117 26.2088 117 27.7C117 29.1912 118.209 30.4 119.7 30.4Z" fill="#9747FF"/>
    <circle cx="119.7" cy="27.7002" r="1.5" fill="#9747FF"/>
    <path d="M199.7 187.4C201.191 187.4 202.4 186.191 202.4 184.7C202.4 183.209 201.191 182 199.7 182C198.209 182 197 183.209 197 184.7C197 186.191 198.209 187.4 199.7 187.4Z" fill="#9747FF"/>
    <circle cx="199.7" cy="184.7" r="1.5" fill="#9747FF"/>
  </g>
  <defs>
    <clipPath id="clip0_1421_17457">
      <rect width="291" height="200" fill="white"/>
    </clipPath>
    <clipPath id="clip1_1421_17457">
      <path d="M56 85C56 83.3431 57.3431 82 59 82H85C86.6569 82 88 83.3431 88 85V111C88 112.657 86.6569 114 85 114H59C57.3431 114 56 112.657 56 111V85Z" fill="white"/>
    </clipPath>
    <clipPath id="clip2_1421_17457">
      <path d="M87 85C87 83.3431 88.3431 82 90 82H116C117.657 82 119 83.3431 119 85V111C119 112.657 117.657 114 116 114H90C88.3431 114 87 112.657 87 111V85Z" fill="white"/>
    </clipPath>
    <clipPath id="clip3_1421_17457">
      <path d="M122 85C122 83.3431 123.343 82 125 82H169C170.657 82 172 83.3431 172 85V111C172 112.657 170.657 114 169 114H125C123.343 114 122 112.657 122 111V85Z" fill="white"/>
    </clipPath>
    <clipPath id="clip4_1421_17457">
      <path d="M199.5 85C199.5 83.3431 200.843 82 202.5 82H236.5C238.157 82 239.5 83.3431 239.5 85V111C239.5 112.657 238.157 114 236.5 114H202.5C200.843 114 199.5 112.657 199.5 111V85Z" fill="white"/>
    </clipPath>
    <clipPath id="clip5_1421_17457">
      <path d="M173 85C173 83.3431 174.343 82 176 82H202C203.657 82 205 83.3431 205 85V111C205 112.657 203.657 114 202 114H176C174.343 114 173 112.657 173 111V85Z" fill="white"/>
    </clipPath>
  </defs>
</svg>
