<svg width="291" height="200" viewBox="0 0 291 200" fill="none" xmlns="http://www.w3.org/2000/svg">
  <g clip-path="url(#clip0_1437_19079)">
    <path d="M199 71.5C201.485 71.5 203.5 73.5147 203.5 76V113C203.5 115.485 201.485 117.5 199 117.5H92C89.5147 117.5 87.5 115.485 87.5 113V76C87.5 73.5147 89.5147 71.5 92 71.5H199Z" fill="#081A72"/>
    <path d="M199 71.5C201.485 71.5 203.5 73.5147 203.5 76V113C203.5 115.485 201.485 117.5 199 117.5H92C89.5147 117.5 87.5 115.485 87.5 113V76C87.5 73.5147 89.5147 71.5 92 71.5H199Z" stroke="#5F82FF"/>
    <rect x="94" y="80.5" width="25" height="3" rx="1.5" fill="#676A70"/>
    <rect x="94" y="87.5" width="47" height="3" rx="1.5" fill="#CACED4"/>
    <rect x="94.5" y="99" width="27" height="9" rx="1.5" fill="#081A72"/>
    <rect x="94.5" y="99" width="27" height="9" rx="1.5" stroke="#CACED4"/>
    <path d="M100 103.5C100 102.948 100.448 102.5 101 102.5H115C115.552 102.5 116 102.948 116 103.5C116 104.052 115.552 104.5 115 104.5H101C100.448 104.5 100 104.052 100 103.5Z" fill="#676A70"/>
    <rect x="126.5" y="99" width="27" height="9" rx="1.5" fill="#9747FF"/>
    <rect x="126.5" y="99" width="27" height="9" rx="1.5" stroke="#9747FF"/>
    <path d="M132 103.5C132 102.948 132.448 102.5 133 102.5H147C147.552 102.5 148 102.948 148 103.5C148 104.052 147.552 104.5 147 104.5H133C132.448 104.5 132 104.052 132 103.5Z" fill="white"/>
    <mask id="mask0_1437_19079" style="mask-type:alpha" maskUnits="userSpaceOnUse" x="137" y="63" width="14" height="9">
      <rect width="14" height="9" transform="translate(137 63)" fill="white"/>
    </mask>
    <g mask="url(#mask0_1437_19079)">
      <path d="M144.583 64.54C144.781 64.241 145.219 64.241 145.417 64.54L150.487 72.2246C150.707 72.557 150.469 73 150.07 73H139.93C139.531 73 139.293 72.557 139.513 72.2246L144.583 64.54Z" fill="#081A72" stroke="#5F82FF"/>
    </g>
    <path d="M134 118L134 150.061C134 152.271 135.791 154.061 138 154.061L189 154.061C191.209 154.061 193 155.852 193 158.061L193 200" stroke="#5F82FF" stroke-width="0.5" stroke-dasharray="3 3"/>
    <path d="M66 -7.62939e-06L66.0001 29.8131C66.0001 32.0222 67.791 33.8131 70.0001 33.8131L106.5 33.8131C108.709 33.8131 110.5 35.604 110.5 37.8131L110.5 71.5" stroke="#5F82FF" stroke-width="0.5" stroke-dasharray="3 3"/>
    <path d="M80.7 36.4C82.1912 36.4 83.4 35.1912 83.4 33.7C83.4 32.2088 82.1912 31 80.7 31C79.2088 31 78 32.2088 78 33.7C78 35.1912 79.2088 36.4 80.7 36.4Z" fill="#9747FF"/>
    <circle cx="80.7002" cy="33.7002" r="1.5" fill="#9747FF"/>
    <path d="M157 158C158.657 158 160 156.657 160 155C160 153.343 158.657 152 157 152C155.343 152 154 153.343 154 155C154 156.657 155.343 158 157 158Z" fill="#5F82FF"/>
  </g>
  <defs>
    <clipPath id="clip0_1437_19079">
      <rect width="291" height="200" fill="white"/>
    </clipPath>
  </defs>
</svg>
