<svg width="291" height="200" viewBox="0 0 291 200" fill="none" xmlns="http://www.w3.org/2000/svg">
  <g clip-path="url(#clip0_1331_12562)">
      <path d="M171 1.49998L171 61.8418C171 64.0509 169.209 65.8418 167 65.8418L157 65.8418C154.791 65.8418 153 67.6326 153 69.8418L153 75" stroke="#5F82FF" stroke-width="0.5" stroke-dasharray="3 3"/>
    <path d="M174 100C174 115.464 161.464 128 146 128C130.536 128 118 115.464 118 100C118 84.536 130.536 72 146 72C161.464 72 174 84.536 174 100ZM124.16 100C124.16 112.062 133.938 121.84 146 121.84C158.062 121.84 167.84 112.062 167.84 100C167.84 87.9381 158.062 78.16 146 78.16C133.938 78.16 124.16 87.9381 124.16 100Z" fill="#CACED4"/>
    <path d="M146 75.0738C146 73.3762 147.38 71.9826 149.068 72.1685C152.3 72.5248 155.454 73.4424 158.384 74.8876C162.236 76.7871 165.599 79.5473 168.214 82.9547C170.828 86.362 172.624 90.3251 173.462 94.5375C174.3 98.7498 174.158 103.098 173.046 107.247C171.934 111.395 169.883 115.233 167.052 118.462C164.22 121.691 160.683 124.225 156.715 125.869C152.747 127.512 148.454 128.221 144.169 127.94C140.908 127.726 137.718 126.944 134.741 125.637C133.187 124.954 132.688 123.057 133.537 121.587C134.386 120.117 136.26 119.635 137.835 120.27C139.979 121.133 142.252 121.654 144.571 121.806C147.915 122.025 151.266 121.472 154.363 120.189C157.459 118.906 160.219 116.928 162.43 114.408C164.64 111.888 166.24 108.894 167.108 105.656C167.975 102.418 168.086 99.0243 167.433 95.7368C166.779 92.4493 165.377 89.3563 163.337 86.6971C161.296 84.0379 158.671 81.8837 155.665 80.4012C153.581 79.3733 151.352 78.6874 149.064 78.3634C147.383 78.1254 146 76.7714 146 75.0738Z" fill="#9747FF"/>
    <path d="M115 199.5L115 137.57C115 135.361 116.791 133.57 119 133.57L141.75 133.57C143.959 133.57 145.75 131.779 145.75 129.57L145.75 128" stroke="#5F82FF" stroke-width="0.5" stroke-dasharray="3 3"/>
    <path d="M237.642 200.121L237.642 136.738C237.642 134.529 235.851 132.738 233.642 132.738L205 132.738C202.791 132.738 201 130.947 201 128.738L201 106C201 103.791 199.209 102 197 102L174 102" stroke="#5F82FF" stroke-width="0.5" stroke-dasharray="3 3"/>
    <path d="M200.7 121.4C202.191 121.4 203.4 120.191 203.4 118.7C203.4 117.209 202.191 116 200.7 116C199.209 116 198 117.209 198 118.7C198 120.191 199.209 121.4 200.7 121.4Z" fill="white"/>
    <path d="M171 49C172.657 49 174 47.6569 174 46C174 44.3432 172.657 43 171 43C169.343 43 168 44.3432 168 46C168 47.6569 169.343 49 171 49Z" fill="#9747FF"/>
    <circle cx="171" cy="46" r="1.5" fill="#9747FF"/>
    <path d="M114.7 164.4C116.191 164.4 117.4 163.191 117.4 161.7C117.4 160.209 116.191 159 114.7 159C113.209 159 112 160.209 112 161.7C112 163.191 113.209 164.4 114.7 164.4Z" fill="#9747FF"/>
  </g>
  <defs>
    <clipPath id="clip0_1331_12562">
      <rect width="291" height="200" fill="white"/>
    </clipPath>
  </defs>
</svg>
