<svg width="291" height="200" viewBox="0 0 291 200" fill="none" xmlns="http://www.w3.org/2000/svg">
  <path d="M262.775 0L262.775 56.5C262.775 58.7091 260.984 60.5 258.775 60.5L157 60.5C154.791 60.5 153 62.2909 153 64.5V92.5" stroke="#5F82FF" stroke-width="0.5" stroke-dasharray="3 3"/>
  <line x1="191.75" y1="200" x2="191.75" y2="111" stroke="#5F82FF" stroke-width="0.5" stroke-dasharray="3 3"/>
  <line x1="106.75" y1="200" x2="106.75" y2="111" stroke="#5F82FF" stroke-width="0.5" stroke-dasharray="3 3"/>
  <line x1="132.75" y1="93" x2="132.75" y2="1" stroke="#5F82FF" stroke-width="0.5" stroke-dasharray="3 3"/>
  <path d="M106.7 150.4C108.191 150.4 109.4 149.191 109.4 147.7C109.4 146.209 108.191 145 106.7 145C105.209 145 104 146.209 104 147.7C104 149.191 105.209 150.4 106.7 150.4Z" fill="white"/>
  <path d="M191.7 63.4C193.191 63.4 194.4 62.1912 194.4 60.7C194.4 59.2088 193.191 58 191.7 58C190.209 58 189 59.2088 189 60.7C189 62.1912 190.209 63.4 191.7 63.4Z" fill="#9747FF"/>
  <circle cx="191.699" cy="60.7" r="1.5" fill="#9747FF"/>
  <path d="M132.7 47.4C134.191 47.4 135.4 46.1912 135.4 44.7C135.4 43.2088 134.191 42 132.7 42C131.209 42 130 43.2088 130 44.7C130 46.1912 131.209 47.4 132.7 47.4Z" fill="#9747FF"/>
  <circle cx="132.699" cy="44.7" r="1.5" fill="#9747FF"/>
  <path d="M83 89H113" stroke="#5F82FF" stroke-width="1.5" stroke-linecap="round"/>
  <mask id="path-12-outside-1_1357_4385" maskUnits="userSpaceOnUse" x="81" y="92" width="129" height="21" fill="black">
    <rect fill="white" x="81" y="92" width="129" height="21"/>
    <path d="M83 98C83 95.7909 84.7909 94 87 94H204C206.209 94 208 95.7909 208 98V107C208 109.209 206.209 111 204 111H87C84.7909 111 83 109.209 83 107V98Z"/>
  </mask>
  <path d="M87 94V95.5H204V94V92.5H87V94ZM208 98H206.5V107H208H209.5V98H208ZM204 111V109.5H87V111V112.5H204V111ZM83 107H84.5V98H83H81.5V107H83ZM87 111V109.5C85.6193 109.5 84.5 108.381 84.5 107H83H81.5C81.5 110.038 83.9624 112.5 87 112.5V111ZM208 107H206.5C206.5 108.381 205.381 109.5 204 109.5V111V112.5C207.038 112.5 209.5 110.038 209.5 107H208ZM204 94V95.5C205.381 95.5 206.5 96.6193 206.5 98H208H209.5C209.5 94.9624 207.038 92.5 204 92.5V94ZM87 94V92.5C83.9624 92.5 81.5 94.9624 81.5 98H83H84.5C84.5 96.6193 85.6193 95.5 87 95.5V94Z" fill="#9747FF" mask="url(#path-12-outside-1_1357_4385)"/>
  <path d="M96.823 105.433C97.0574 105.683 97.0574 106.074 96.823 106.324C96.573 106.558 96.1824 106.558 95.9324 106.324L94.073 104.449C93.4324 104.87 92.6511 105.089 91.8074 104.98C90.3699 104.777 89.2136 103.605 89.0261 102.183C88.7605 100.058 90.5574 98.2611 92.6824 98.5267C94.1043 98.7142 95.2761 99.8705 95.4793 101.308C95.5886 102.152 95.3699 102.933 94.948 103.558L96.823 105.433ZM90.2449 101.745C90.2449 102.855 91.1355 103.745 92.2449 103.745C93.3386 103.745 94.2449 102.855 94.2449 101.745C94.2449 100.652 93.3386 99.7455 92.2449 99.7455C91.1355 99.7455 90.2449 100.652 90.2449 101.745Z" fill="#676A70"/>
  <path d="M102.998 102.5H132.998" stroke="white" stroke-width="1.5" stroke-linecap="round"/>
</svg>
