<svg width="291" height="200" viewBox="0 0 291 200" fill="none" xmlns="http://www.w3.org/2000/svg">
  <path d="M96.5 55V32.5C96.5 30.2909 94.7091 28.5 92.5 28.5L66.0001 28.5C63.7909 28.5 62.0001 26.7091 62.0001 24.5V0.5" stroke="#5F82FF" stroke-width="0.5" stroke-dasharray="3 3"/>
  <path d="M268.057 199.842V143C268.057 140.791 266.266 139 264.057 139H195.999" stroke="#5F82FF" stroke-width="0.5" stroke-dasharray="3 3"/>
  <mask id="path-4-outside-1_1329_11381" maskUnits="userSpaceOnUse" x="77" y="81" width="129" height="84" fill="black">
    <rect fill="white" x="77" y="81" width="129" height="84"/>
    <path d="M79 87C79 84.7909 80.7909 83 83 83H200C202.209 83 204 84.7909 204 87V159C204 161.209 202.209 163 200 163H83C80.7909 163 79 161.209 79 159V87Z"/>
  </mask>
  <path d="M79 87C79 84.7909 80.7909 83 83 83H200C202.209 83 204 84.7909 204 87V159C204 161.209 202.209 163 200 163H83C80.7909 163 79 161.209 79 159V87Z" fill="#041059"/>
  <path d="M83 83V84.5H200V83V81.5H83V83ZM204 87H202.5V159H204H205.5V87H204ZM200 163V161.5H83V163V164.5H200V163ZM79 159H80.5V87H79H77.5V159H79ZM83 163V161.5C81.6193 161.5 80.5 160.381 80.5 159H79H77.5C77.5 162.038 79.9624 164.5 83 164.5V163ZM204 159H202.5C202.5 160.381 201.381 161.5 200 161.5V163V164.5C203.038 164.5 205.5 162.038 205.5 159H204ZM200 83V84.5C201.381 84.5 202.5 85.6193 202.5 87H204H205.5C205.5 83.9624 203.038 81.5 200 81.5V83ZM83 83V81.5C79.9624 81.5 77.5 83.9624 77.5 87H79H80.5C80.5 85.6193 81.6193 84.5 83 84.5V83Z" fill="#9747FF" mask="url(#path-4-outside-1_1329_11381)"/>
  <path d="M102.5 98.5H95.5C94.9477 98.5 94.5 98.9477 94.5 99.5V106.5C94.5 107.052 94.9477 107.5 95.5 107.5H102.5C103.052 107.5 103.5 107.052 103.5 106.5V99.5C103.5 98.9477 103.052 98.5 102.5 98.5Z" stroke="#676A70" stroke-linecap="round" stroke-linejoin="round"/>
  <path d="M119 103H177" stroke="#676A70" stroke-width="1.5" stroke-linecap="round"/>
  <path d="M97.5 123L98.5 124L100.5 122M95.5 118.5H102.5C103.052 118.5 103.5 118.948 103.5 119.5V126.5C103.5 127.052 103.052 127.5 102.5 127.5H95.5C94.9477 127.5 94.5 127.052 94.5 126.5V119.5C94.5 118.948 94.9477 118.5 95.5 118.5Z" stroke="#5F82FF" stroke-linecap="round" stroke-linejoin="round"/>
  <path d="M119 123H177" stroke="#5F82FF" stroke-width="1.5" stroke-linecap="round"/>
  <path d="M97.5 143L98.5 144L100.5 142M95.5 138.5H102.5C103.052 138.5 103.5 138.948 103.5 139.5V146.5C103.5 147.052 103.052 147.5 102.5 147.5H95.5C94.9477 147.5 94.5 147.052 94.5 146.5V139.5C94.5 138.948 94.9477 138.5 95.5 138.5Z" stroke="#5F82FF" stroke-linecap="round" stroke-linejoin="round"/>
  <path d="M119 143H177" stroke="#5F82FF" stroke-width="1.5" stroke-linecap="round"/>
  <path d="M72.7 31.4C74.1912 31.4 75.4 30.1912 75.4 28.7C75.4 27.2088 74.1912 26 72.7 26C71.2088 26 70 27.2088 70 28.7C70 30.1912 71.2088 31.4 72.7 31.4Z" fill="white"/>
  <path d="M232 142C233.657 142 235 140.657 235 139C235 137.343 233.657 136 232 136C230.343 136 229 137.343 229 139C229 140.657 230.343 142 232 142Z" fill="#5F82FF"/>
  <mask id="path-14-outside-2_1329_11381" maskUnits="userSpaceOnUse" x="77" y="58" width="129" height="21" fill="black">
    <rect fill="white" x="77" y="58" width="129" height="21"/>
    <path d="M79 64C79 61.7909 80.7909 60 83 60H200C202.209 60 204 61.7909 204 64V73C204 75.2091 202.209 77 200 77H83C80.7909 77 79 75.2091 79 73V64Z"/>
  </mask>
  <path d="M79 64C79 61.7909 80.7909 60 83 60H200C202.209 60 204 61.7909 204 64V73C204 75.2091 202.209 77 200 77H83C80.7909 77 79 75.2091 79 73V64Z" fill="#280872"/>
  <path d="M83 60V61.5H200V60V58.5H83V60ZM204 64H202.5V73H204H205.5V64H204ZM200 77V75.5H83V77V78.5H200V77ZM79 73H80.5V64H79H77.5V73H79ZM83 77V75.5C81.6193 75.5 80.5 74.3807 80.5 73H79H77.5C77.5 76.0376 79.9624 78.5 83 78.5V77ZM204 73H202.5C202.5 74.3807 201.381 75.5 200 75.5V77V78.5C203.038 78.5 205.5 76.0376 205.5 73H204ZM200 60V61.5C201.381 61.5 202.5 62.6193 202.5 64H204H205.5C205.5 60.9624 203.038 58.5 200 58.5V60ZM83 60V58.5C79.9624 58.5 77.5 60.9624 77.5 64H79H80.5C80.5 62.6193 81.6193 61.5 83 61.5V60Z" fill="#9747FF" mask="url(#path-14-outside-2_1329_11381)"/>
  <path d="M197.571 67C197.946 67 198.149 67.4688 197.868 67.75L195.805 69.875C195.727 69.9688 195.618 70 195.508 70C195.383 70 195.274 69.9688 195.196 69.875L193.133 67.75C192.852 67.4688 193.055 67 193.43 67H197.571Z" fill="#9747FF"/>
  <mask id="path-17-inside-3_1329_11381" fill="white">
    <path d="M83 66C83 63.7909 84.7909 62 87 62H129C131.209 62 133 63.7909 133 66V71C133 73.2091 131.209 75 129 75H87C84.7909 75 83 73.2091 83 71V66Z"/>
  </mask>
  <path d="M83 66C83 63.7909 84.7909 62 87 62H129C131.209 62 133 63.7909 133 66V71C133 73.2091 131.209 75 129 75H87C84.7909 75 83 73.2091 83 71V66Z" fill="#280872"/>
  <path d="M87 62V63.5H129V62V60.5H87V62ZM133 66H131.5V71H133H134.5V66H133ZM129 75V73.5H87V75V76.5H129V75ZM83 71H84.5V66H83H81.5V71H83ZM87 75V73.5C85.6193 73.5 84.5 72.3807 84.5 71H83H81.5C81.5 74.0376 83.9624 76.5 87 76.5V75ZM133 71H131.5C131.5 72.3807 130.381 73.5 129 73.5V75V76.5C132.038 76.5 134.5 74.0376 134.5 71H133ZM129 62V63.5C130.381 63.5 131.5 64.6193 131.5 66H133H134.5C134.5 62.9624 132.038 60.5 129 60.5V62ZM87 62V60.5C83.9624 60.5 81.5 62.9624 81.5 66H83H84.5C84.5 64.6193 85.6193 63.5 87 63.5V62Z" fill="#5F82FF" mask="url(#path-17-inside-3_1329_11381)"/>
  <rect x="89" y="67.75" width="22" height="1.5" rx="0.75" fill="#CACED4"/>
  <path d="M124 65.5L118 71.5M118 65.5L124 71.5" stroke="#CACED4" stroke-linecap="round" stroke-linejoin="round"/>
  <mask id="path-21-inside-4_1329_11381" fill="white">
    <path d="M137 66C137 63.7909 138.791 62 141 62H183C185.209 62 187 63.7909 187 66V71C187 73.2091 185.209 75 183 75H141C138.791 75 137 73.2091 137 71V66Z"/>
  </mask>
  <path d="M137 66C137 63.7909 138.791 62 141 62H183C185.209 62 187 63.7909 187 66V71C187 73.2091 185.209 75 183 75H141C138.791 75 137 73.2091 137 71V66Z" fill="#280872"/>
  <path d="M141 62V63.5H183V62V60.5H141V62ZM187 66H185.5V71H187H188.5V66H187ZM183 75V73.5H141V75V76.5H183V75ZM137 71H138.5V66H137H135.5V71H137ZM141 75V73.5C139.619 73.5 138.5 72.3807 138.5 71H137H135.5C135.5 74.0376 137.962 76.5 141 76.5V75ZM187 71H185.5C185.5 72.3807 184.381 73.5 183 73.5V75V76.5C186.038 76.5 188.5 74.0376 188.5 71H187ZM183 62V63.5C184.381 63.5 185.5 64.6193 185.5 66H187H188.5C188.5 62.9624 186.038 60.5 183 60.5V62ZM141 62V60.5C137.962 60.5 135.5 62.9624 135.5 66H137H138.5C138.5 64.6193 139.619 63.5 141 63.5V62Z" fill="#5F82FF" mask="url(#path-21-inside-4_1329_11381)"/>
  <rect x="143" y="67.75" width="22" height="1.5" rx="0.75" fill="#CACED4"/>
  <path d="M178 65.5L172 71.5M172 65.5L178 71.5" stroke="#CACED4" stroke-linecap="round" stroke-linejoin="round"/>
  <path d="M79 55H109" stroke="#676A70" stroke-width="1.5" stroke-linecap="round"/>
  <path d="M99 162.842L98.9999 178.342C98.9998 180.551 97.209 182.342 94.9999 182.342L23.4999 182.342C21.2908 182.342 19.4999 184.133 19.4999 186.342L19.4999 199.842" stroke="#5F82FF" stroke-width="0.5" stroke-dasharray="3 3"/>
  <path d="M37.7 185.4C39.1912 185.4 40.4 184.191 40.4 182.7C40.4 181.209 39.1912 180 37.7 180C36.2088 180 35 181.209 35 182.7C35 184.191 36.2088 185.4 37.7 185.4Z" fill="white"/>
</svg>
