<svg width="291" height="200" viewBox="0 0 291 200" fill="none" xmlns="http://www.w3.org/2000/svg">
  <path d="M56 100C56 98.3431 57.3431 97 59 97H232C233.657 97 235 98.3431 235 100C235 101.657 233.657 103 232 103H59C57.3431 103 56 101.657 56 100Z" fill="#CACED4"/>
  <path d="M105.912 97.6211V47.7378C105.912 45.5287 107.703 43.7378 109.912 43.7378L188.5 43.7378C190.709 43.7378 192.5 41.947 192.5 39.7378V6.10352e-05" stroke="#5F82FF" stroke-width="0.5" stroke-dasharray="3 3"/>
  <path d="M147.8 46.4C146.309 46.4 145.1 45.1912 145.1 43.7C145.1 42.2088 146.309 41 147.8 41C149.291 41 150.5 42.2088 150.5 43.7C150.5 45.1912 149.291 46.4 147.8 46.4Z" fill="#9747FF"/>
  <circle cx="1.5" cy="1.5" r="1.5" transform="matrix(-1 0 0 1 149.3 42.2002)" fill="#9747FF"/>
  <circle cx="105.493" cy="100" r="8.76294" fill="#9747FF"/>
  <line x1="224.75" y1="200" x2="224.75" y2="102" stroke="#5F82FF" stroke-width="0.5" stroke-dasharray="3 3"/>
  <path d="M224.7 130.4C226.191 130.4 227.4 129.191 227.4 127.7C227.4 126.209 226.191 125 224.7 125C223.209 125 222 126.209 222 127.7C222 129.191 223.209 130.4 224.7 130.4Z" fill="white"/>
</svg>
