<svg width="291" height="202" viewBox="0 0 291 202" fill="none" xmlns="http://www.w3.org/2000/svg">
  <mask id="path-2-inside-1_1061_5138" fill="white">
    <path d="M27.5244 88.5001C27.5244 86.2909 29.3153 84.5001 31.5244 84.5001H106.989V115.5H27.5244V88.5001Z"/>
  </mask>
  <path d="M27.5244 88.5001C27.5244 86.2909 29.3153 84.5001 31.5244 84.5001H106.989V115.5H27.5244V88.5001Z" fill="#280872"/>
  <path d="M27.5244 84.5001H106.989H27.5244ZM106.989 117H27.5244V114H106.989V117ZM27.5244 115.5V84.5001V115.5ZM106.989 84.5001V115.5V84.5001Z" fill="#9747FF" mask="url(#path-2-inside-1_1061_5138)"/>
  <path d="M106.989 84.5001H186.454V115.5H106.989V84.5001Z" fill="#081A72"/>
  <path d="M186.454 84.5001H261.919C264.128 84.5001 265.919 86.2909 265.919 88.5001V115.5H186.454V84.5001Z" fill="#081A72"/>
  <path d="M46.3245 94.2501C46.8357 94.2502 47.3258 94.478 47.6873 94.8829C48.0489 95.2879 48.2524 95.8375 48.2524 96.4103C48.2522 96.9112 48.0966 97.3943 47.8155 97.7784L47.6873 97.9366L41.7285 104.611C41.5474 104.814 41.3244 104.964 41.0797 105.047L39.1362 105.707H39.1345C38.9801 105.759 38.8156 105.764 38.6593 105.72C38.5031 105.676 38.3609 105.585 38.2469 105.457C38.1328 105.33 38.051 105.17 38.0114 104.995C37.972 104.82 37.9759 104.637 38.0219 104.464L38.0228 104.46L38.6122 102.284L38.6131 102.282C38.6882 102.008 38.8223 101.758 39.0037 101.556L44.9607 94.8829C45.3223 94.4781 45.8131 94.25 46.3245 94.2501ZM46.3245 95.7501C46.1683 95.7501 46.0182 95.8198 45.9077 95.9435L39.9488 102.618C39.9237 102.646 39.9039 102.681 39.893 102.719L39.8939 102.72L39.547 103.999L40.69 103.611L40.7397 103.587C40.7552 103.577 40.7696 103.564 40.7824 103.55L46.7404 96.8761L46.8136 96.7755C46.8777 96.6679 46.913 96.5405 46.9131 96.4093L46.9017 96.2804C46.879 96.1536 46.8232 96.0362 46.7404 95.9435C46.63 95.8198 46.4806 95.7502 46.3245 95.7501Z" fill="white"/>
  <path d="M95.1487 99.2501L95.2156 99.254C95.5424 99.2926 95.7969 99.6119 95.7969 100C95.7969 100.388 95.5424 100.708 95.2156 100.746L95.1487 100.75H56.2662C55.9083 100.75 55.6182 100.414 55.6182 100C55.6182 99.5859 55.9083 99.2501 56.2662 99.2501H95.1487Z" fill="white"/>
  <path d="M174.614 99.2501L174.68 99.254C175.007 99.2926 175.262 99.6119 175.262 100C175.262 100.388 175.007 100.708 174.68 100.746L174.614 100.75H135.731C135.373 100.75 135.083 100.414 135.083 100C135.083 99.5859 135.373 99.2501 135.731 99.2501H174.614Z" fill="#676A70"/>
  <path d="M254.078 99.2501L254.145 99.254C254.472 99.2926 254.727 99.6119 254.727 100C254.727 100.388 254.472 100.708 254.145 100.746L254.078 100.75H215.196C214.838 100.75 214.548 100.414 214.548 100C214.548 99.5859 214.838 99.2501 215.196 99.2501H254.078Z" fill="#676A70"/>
  <path d="M85.1535 84.5L85.1535 33.3913C85.1535 31.1822 86.9444 29.3913 89.1535 29.3913L204.291 29.3913C206.5 29.3913 208.291 27.6005 208.291 25.3913L208.291 9.53674e-07" stroke="#5F82FF" stroke-width="0.5" stroke-dasharray="3 3"/>
  <line x1="243.715" y1="200" x2="243.715" y2="115.5" stroke="#5F82FF" stroke-width="0.5" stroke-dasharray="3 3"/>
  <path d="M85.7645 61.4C87.2556 61.4 88.4645 60.1912 88.4645 58.7C88.4645 57.2088 87.2556 56 85.7645 56C84.2733 56 83.0645 57.2088 83.0645 58.7C83.0645 60.1912 84.2733 61.4 85.7645 61.4Z" fill="white"/>
  <path d="M244.265 148C245.921 148 247.265 146.657 247.265 145C247.265 143.343 245.921 142 244.265 142C242.608 142 241.265 143.343 241.265 145C241.265 146.657 242.608 148 244.265 148Z" fill="#9747FF"/>
  <circle cx="244.265" cy="145" r="1.5" fill="#9747FF"/>
  <path d="M73.5 115.5L73.5 146.778C73.5 148.987 71.7091 150.778 69.5 150.778L10.5039 150.778C8.29477 150.778 6.50391 152.569 6.50391 154.778L6.50391 201.082" stroke="#5F82FF" stroke-width="0.5" stroke-dasharray="3 3"/>
  <path d="M124.604 102.5C124.88 102.5 125.104 102.724 125.104 103C125.104 103.276 124.88 103.5 124.604 103.5H117.604C117.327 103.5 117.104 103.276 117.104 103C117.104 102.724 117.327 102.5 117.604 102.5H124.604ZM123.604 99.5C123.88 99.5 124.104 99.7239 124.104 100C124.104 100.276 123.88 100.5 123.604 100.5H117.604C117.327 100.5 117.104 100.276 117.104 100C117.104 99.7239 117.327 99.5 117.604 99.5H123.604ZM126.604 96.5C126.88 96.5 127.104 96.7239 127.104 97C127.104 97.2761 126.88 97.5 126.604 97.5H117.604C117.327 97.5 117.104 97.2761 117.104 97C117.104 96.7239 117.327 96.5 117.604 96.5H126.604Z" fill="#676A70"/>
  <path d="M206.604 98C206.88 98 207.104 98.2239 207.104 98.5V101.5C207.104 101.776 206.88 102 206.604 102C206.4 102 206.225 101.878 206.147 101.703C205.843 101.89 205.487 102 205.104 102C203.999 102 203.104 101.105 203.104 100C203.104 98.8955 203.999 98 205.104 98C205.486 98 205.843 98.1092 206.147 98.2959C206.226 98.1216 206.4 98 206.604 98ZM199.604 97C199.793 97 199.966 97.107 200.051 97.2764L202.051 101.276C202.174 101.523 202.074 101.824 201.827 101.947C201.58 102.071 201.28 101.971 201.156 101.724L200.795 101H198.412L198.051 101.724C197.927 101.971 197.627 102.071 197.38 101.947C197.133 101.824 197.033 101.523 197.156 101.276L199.156 97.2764L199.192 97.2158C199.285 97.082 199.438 97 199.604 97ZM205.104 99C204.551 99 204.104 99.4477 204.104 100C204.104 100.552 204.551 101 205.104 101C205.656 101 206.104 100.552 206.104 100C206.104 99.4477 205.656 99 205.104 99ZM198.912 100H200.295L199.604 98.6182L198.912 100Z" fill="#676A70"/>
</svg>
