<svg width="291" height="200" viewBox="0 0 291 200" fill="none" xmlns="http://www.w3.org/2000/svg">
  <mask id="path-2-outside-1_1061_5238" maskUnits="userSpaceOnUse" x="92" y="38" width="96" height="125" fill="black">
    <rect fill="white" x="92" y="38" width="96" height="125"/>
    <path d="M94 44C94 41.7909 95.7909 40 98 40H182C184.209 40 186 41.7909 186 44V157C186 159.209 184.209 161 182 161H98C95.7909 161 94 159.209 94 157V44Z"/>
  </mask>
  <path d="M94 44C94 41.7909 95.7909 40 98 40H182C184.209 40 186 41.7909 186 44V157C186 159.209 184.209 161 182 161H98C95.7909 161 94 159.209 94 157V44Z" fill="#081A72"/>
  <path d="M98 40V41.5H182V40V38.5H98V40ZM186 44H184.5V157H186H187.5V44H186ZM182 161V159.5H98V161V162.5H182V161ZM94 157H95.5V44H94H92.5V157H94ZM98 161V159.5C96.6193 159.5 95.5 158.381 95.5 157H94H92.5C92.5 160.038 94.9624 162.5 98 162.5V161ZM186 157H184.5C184.5 158.381 183.381 159.5 182 159.5V161V162.5C185.038 162.5 187.5 160.038 187.5 157H186ZM182 40V41.5C183.381 41.5 184.5 42.6193 184.5 44H186H187.5C187.5 40.9624 185.038 38.5 182 38.5V40ZM98 40V38.5C94.9624 38.5 92.5 40.9624 92.5 44H94H95.5C95.5 42.6193 96.6193 41.5 98 41.5V40Z" fill="#5F82FF" mask="url(#path-2-outside-1_1061_5238)"/>
  <path d="M106.559 74.7556H173.01" stroke="white" stroke-width="1.5" stroke-linecap="round"/>
  <path d="M106.559 87.2303H173.01" stroke="#5F82FF" stroke-width="1.5" stroke-linecap="round"/>
  <path d="M106.559 94.2303H173.01" stroke="#5F82FF" stroke-width="1.5" stroke-linecap="round"/>
  <path d="M106.559 101.23H173.01" stroke="#5F82FF" stroke-width="1.5" stroke-linecap="round"/>
  <path d="M107 49.5V55.5M109.598 51L104.402 54M104.402 51L109.598 54" stroke="#9747FF" stroke-linecap="round" stroke-linejoin="round"/>
  <path d="M108.402 138.835H154.636C156.569 138.835 158.136 140.402 158.136 142.335V146.313C158.136 148.246 156.569 149.813 154.636 149.813H108.402C106.469 149.813 104.902 148.246 104.902 146.313V142.335C104.902 140.402 106.469 138.835 108.402 138.835Z" fill="#290972" stroke="#9747FF"/>
  <path d="M110.546 147.024C112.037 147.024 113.246 145.815 113.246 144.324C113.246 142.833 112.037 141.624 110.546 141.624C109.055 141.624 107.846 142.833 107.846 144.324C107.846 145.815 109.055 147.024 110.546 147.024Z" fill="white"/>
  <path d="M118.846 144.324H152.081" stroke="white" stroke-width="1.5" stroke-linecap="round"/>
  <path d="M8.38202 200L8.38202 171.596C8.38202 169.387 10.1729 167.596 12.382 167.596L127.52 167.596C129.729 167.596 131.52 165.805 131.52 163.596L131.52 150.314" stroke="#5F82FF" stroke-width="0.5" stroke-dasharray="3 3"/>
  <path d="M215 0L215 140.574C215 142.783 213.209 144.574 211 144.574H158.153" stroke="#5F82FF" stroke-width="0.5" stroke-dasharray="3 3"/>
  <path d="M50.7 170.4C52.1912 170.4 53.4 169.191 53.4 167.7C53.4 166.209 52.1912 165 50.7 165C49.2088 165 48 166.209 48 167.7C48 169.191 49.2088 170.4 50.7 170.4Z" fill="#9747FF"/>
  <circle cx="50.6992" cy="167.7" r="1.5" fill="#9747FF"/>
</svg>
