<svg width="291" height="200" viewBox="0 0 291 200" fill="none" xmlns="http://www.w3.org/2000/svg">
  <g clip-path="url(#clip0_1061_5320)">
      <path d="M19.1074 198.354L19.1075 63C19.1075 60.7908 20.8984 59 23.1075 59L124.883 59C127.092 59 128.883 60.7908 128.883 63V87" stroke="#5F82FF" stroke-width="0.5" stroke-dasharray="3 3"/>
    <path d="M42.1004 141.4C43.5916 141.4 44.8004 140.191 44.8004 138.7C44.8004 137.209 43.5916 136 42.1004 136C40.6092 136 39.4004 137.209 39.4004 138.7C39.4004 140.191 40.6092 141.4 42.1004 141.4Z" fill="#9747FF"/>
    <circle cx="42.0996" cy="138.7" r="1.5" fill="#9747FF"/>
    <path d="M209 35C211.761 35 214 32.7614 214 30C214 27.2386 211.761 25 209 25C206.239 25 204 27.2386 204 30C204 32.7614 206.239 35 209 35Z" fill="#020B3F"/>
    <path d="M92 183C94.7614 183 97 180.761 97 178C97 175.239 94.7614 173 92 173C89.2386 173 87 175.239 87 178C87 180.761 89.2386 183 92 183Z" fill="#020B3F"/>
    <path d="M74.7 61.7C76.1912 61.7 77.4 60.4912 77.4 59C77.4 57.5088 76.1912 56.3 74.7 56.3C73.2088 56.3 72 57.5088 72 59C72 60.4912 73.2088 61.7 74.7 61.7Z" fill="white"/>
    <path d="M256.883 39.2C258.54 39.2 259.883 37.8569 259.883 36.2C259.883 34.5432 258.54 33.2 256.883 33.2C255.226 33.2 253.883 34.5432 253.883 36.2C253.883 37.8569 255.226 39.2 256.883 39.2Z" fill="#5F82FF"/>
    <path d="M104.418 118.676C104.418 116.467 106.209 114.676 108.418 114.676H179.883C182.092 114.676 183.883 116.467 183.883 118.676V141.676C183.883 143.885 182.092 145.676 179.883 145.676H108.418C106.209 145.676 104.418 143.885 104.418 141.676V118.676Z" fill="#081A72"/>
    <path d="M167.495 87C169.704 87 171.495 88.7909 171.495 91V103.282C171.495 105.491 169.704 107.282 167.495 107.282H151.303L145.854 112.732C145.658 112.928 145.341 112.928 145.146 112.732L139.696 107.282H123.505C121.296 107.282 119.504 105.491 119.504 103.282V91C119.504 88.791 121.295 87.0003 123.504 87H167.495Z" fill="#290973" stroke="#9747FF" stroke-width="1.5" stroke-linecap="round"/>
    <path d="M177.248 142.343L181.961 153.676L183.635 148.749L188.581 147.056L177.248 142.343Z" stroke="white" stroke-width="1.25" stroke-linecap="round" stroke-linejoin="round"/>
    <path d="M128.883 97.7092H162.118" stroke="white" stroke-width="1.5" stroke-linecap="round"/>
    <path d="M256.582 -25.3241L256.582 147.676C256.582 149.885 254.791 151.676 252.582 151.676L202.326 151.676C200.116 151.676 198.326 149.885 198.326 147.676L198.326 95.6759C198.326 93.4668 196.535 91.6759 194.326 91.6759L172.582 91.6759" stroke="#5F82FF" stroke-width="0.5" stroke-dasharray="3 3"/>
    <path d="M116 126H172" stroke="#676A70" stroke-width="1.5" stroke-linecap="round"/>
    <path d="M116 135H152" stroke="#676A70" stroke-width="1.5" stroke-linecap="round"/>
  </g>
  <defs>
    <clipPath id="clip0_1061_5320">
      <rect width="291" height="200" fill="white"/>
    </clipPath>
  </defs>
</svg>
