<svg xmlns="http://www.w3.org/2000/svg" version="1.1" xmlns:xlink="http://www.w3.org/1999/xlink" width="274" height="331"><svg width="274" height="331" viewBox="0 0 274 331" fill="none" xmlns="http://www.w3.org/2000/svg">
<g clip-path="url(#clip0_2001_280)">
<path d="M273.511 80.9481L137.505 0L0.489212 80.7457V249.522L137.505 330.268L273.511 249.32V80.9481Z" fill="#2A2AEA"></path>
<path d="M35.7178 193.075V98.0421L102.912 58.3474L180.519 104.299V193.466L151.637 210.478V121.311L102.715 92.3714L64.5994 115.006V176.063L93.874 193.466V132.457L122.756 149.546V227.294L151.637 244.502L209.204 210.497V176.454L238.282 159.285V227.294L151.637 278.526L93.874 244.306V227.49L35.7178 193.075Z" fill="white"></path>
<path d="M238.282 99.4109L209.204 116.618V153.38L238.282 136.173V99.4109Z" fill="white"></path>
</g>
<defs>
<clipPath id="SvgjsClipPath1001">
<rect width="274" height="330.268" fill="white"></rect>
</clipPath>
</defs>
</svg><style>@media (prefers-color-scheme: light) { :root { filter: none; } }
@media (prefers-color-scheme: dark) { :root { filter: none; } }
</style></svg>