<svg width="291" height="200" viewBox="0 0 291 200" fill="none" xmlns="http://www.w3.org/2000/svg">
  <path d="M215 98L215 40.6957C215 38.4865 213.209 36.6957 211 36.6957L182 36.6957C179.791 36.6957 178 34.9048 178 32.6957L178 4" stroke="#5F82FF" stroke-width="0.5" stroke-dasharray="3 3"/>
  <path d="M177.817 17.3373C179.308 17.3373 180.517 16.1285 180.517 14.6373C180.517 13.1462 179.308 11.9373 177.817 11.9373C176.326 11.9373 175.117 13.1462 175.117 14.6373C175.117 16.1285 176.326 17.3373 177.817 17.3373Z" fill="#9747FF"/>
  <path d="M66 98C66 96.3431 67.3431 95 69 95H95C96.6569 95 98 96.3431 98 98C98 99.6569 96.6569 101 95 101H69C67.3431 101 66 99.6569 66 98Z" fill="#5F82FF"/>
  <path d="M130 98C130 96.3431 131.343 95 133 95H158C159.657 95 161 96.3431 161 98C161 99.6569 159.657 101 158 101H133C131.343 101 130 99.6569 130 98Z" fill="#5F82FF"/>
  <path d="M112.5 101L115.5 98L112.5 95" stroke="#676A70" stroke-linecap="round" stroke-linejoin="round"/>
  <path d="M176.5 101L179.5 98L176.5 95" stroke="#676A70" stroke-linecap="round" stroke-linejoin="round"/>
  <path d="M194 98C194 96.3431 195.343 95 197 95H223C224.657 95 226 96.3431 226 98C226 99.6569 224.657 101 223 101H197C195.343 101 194 99.6569 194 98Z" fill="#9747FF"/>
  <path d="M91.8184 199L91.8184 116.382C91.8184 114.173 93.6092 112.382 95.8184 112.382L142 112.382C144.209 112.382 146 110.591 146 108.382L146 98" stroke="#5F82FF" stroke-width="0.5" stroke-dasharray="3 3"/>
</svg>
