<svg width="292" height="200" viewBox="0 0 292 200" fill="none" xmlns="http://www.w3.org/2000/svg">
  <path d="M220.513 0V60.7282C220.513 62.9374 218.722 64.7282 216.513 64.7282H199.359C197.15 64.7282 195.359 66.5191 195.359 68.7282L195.359 99.25" stroke="#5F82FF" stroke-width="0.5" stroke-dasharray="3 3"/>
  <path d="M170.463 70.7899L170.682 70.7938C171.747 70.8324 172.576 71.1517 172.576 71.5399C172.576 71.9281 171.747 72.2474 170.682 72.286L170.463 72.2899H43.7131C42.5465 72.2899 41.6006 71.9541 41.6006 71.5399C41.6006 71.1257 42.5465 70.7899 43.7131 70.7899H170.463Z" fill="#676A70"/>
  <path d="M156.713 81L156.908 81.0052C157.86 81.0567 158.601 81.4824 158.601 82C158.601 82.5176 157.86 82.9433 156.908 82.9948L156.713 83H43.4877C42.4456 83 41.6006 82.5523 41.6006 82C41.6006 81.4477 42.4456 81 43.4877 81H156.713Z" fill="#676A70"/>
  <path d="M104.692 127.875L104.797 127.879C105.312 127.917 105.712 128.237 105.712 128.625C105.712 129.013 105.312 129.333 104.797 129.371L104.692 129.375H43.4965C42.9333 129.375 42.4766 129.039 42.4766 128.625C42.4766 128.211 42.9333 127.875 43.4965 127.875H104.692Z" fill="#676A70"/>
  <path d="M129.057 117.75L129.203 117.754C129.919 117.792 130.477 118.112 130.477 118.5C130.477 118.888 129.919 119.208 129.203 119.246L129.057 119.25H43.8959C43.1121 119.25 42.4766 118.914 42.4766 118.5C42.4766 118.086 43.1121 117.75 43.8959 117.75H129.057Z" fill="#676A70"/>
  <path d="M210.637 66.816C212.128 66.816 213.337 65.6072 213.337 64.116C213.337 62.6248 212.128 61.416 210.637 61.416C209.145 61.416 207.937 62.6248 207.937 64.116C207.937 65.6072 209.145 66.816 210.637 66.816Z" fill="#9747FF"/>
  <path d="M167.5 199.946C167.5 197.458 167.823 132.962 168.088 100.405" stroke="#5F82FF" stroke-width="0.5" stroke-dasharray="3 3"/>
  <path d="M167.2 182.4C168.691 182.4 169.9 181.191 169.9 179.7C169.9 178.209 168.691 177 167.2 177C165.709 177 164.5 178.209 164.5 179.7C164.5 181.191 165.709 182.4 167.2 182.4Z" fill="#9747FF"/>
  <path d="M247.907 99.25L248.255 99.2539C249.953 99.2925 251.276 99.6118 251.276 100C251.276 100.388 249.953 100.708 248.255 100.746L247.907 100.75H45.8443C43.9846 100.75 42.4766 100.414 42.4766 100C42.4766 99.5858 43.9846 99.25 45.8443 99.25H247.907Z" fill="#9747FF"/>
</svg>
