<svg width="291" height="200" viewBox="0 0 291 200" fill="none" xmlns="http://www.w3.org/2000/svg">
  <mask id="path-2-outside-1_1061_4977" maskUnits="userSpaceOnUse" x="42.5" y="80.621" width="206" height="39" fill="black">
    <rect fill="white" x="42.5" y="80.621" width="206" height="39"/>
    <path d="M44.5 86.621C44.5 84.4119 46.2909 82.621 48.5 82.621H242.5C244.709 82.621 246.5 84.4119 246.5 86.621V113.379C246.5 115.588 244.709 117.379 242.5 117.379H48.5C46.2909 117.379 44.5 115.588 44.5 113.379V86.621Z"/>
  </mask>
  <path d="M44.5 86.621C44.5 84.4119 46.2909 82.621 48.5 82.621H242.5C244.709 82.621 246.5 84.4119 246.5 86.621V113.379C246.5 115.588 244.709 117.379 242.5 117.379H48.5C46.2909 117.379 44.5 115.588 44.5 113.379V86.621Z" fill="#081A72"/>
  <path d="M48.5 82.621V84.121H242.5V82.621V81.121H48.5V82.621ZM246.5 86.621H245V113.379H246.5H248V86.621H246.5ZM242.5 117.379V115.879H48.5V117.379V118.879H242.5V117.379ZM44.5 113.379H46V86.621H44.5H43V113.379H44.5ZM48.5 117.379V115.879C47.1193 115.879 46 114.76 46 113.379H44.5H43C43 116.417 45.4624 118.879 48.5 118.879V117.379ZM246.5 113.379H245C245 114.76 243.881 115.879 242.5 115.879V117.379V118.879C245.538 118.879 248 116.417 248 113.379H246.5ZM242.5 82.621V84.121C243.881 84.121 245 85.2403 245 86.621H246.5H248C248 83.5835 245.538 81.121 242.5 81.121V82.621ZM48.5 82.621V81.121C45.4624 81.121 43 83.5835 43 86.621H44.5H46C46 85.2403 47.1193 84.121 48.5 84.121V82.621Z" fill="#5F82FF" mask="url(#path-2-outside-1_1061_4977)"/>
  <path d="M61.4277 95.5654L61.4277 100.987" stroke="#9747FF" stroke-width="1.5" stroke-linecap="round" stroke-linejoin="round"/>
  <circle cx="61.4307" cy="103.902" r="0.5" fill="white" stroke="#9747FF" stroke-width="0.5"/>
  <path d="M71.8887 100H206.375" stroke="white" stroke-width="1.5" stroke-linecap="round" stroke-linejoin="round"/>
  <path d="M219.319 100L230.319 100" stroke="#9747FF" stroke-width="1.5" stroke-linecap="round" stroke-linejoin="round"/>
  <path d="M41.75 200V150.117C41.75 147.908 43.5409 146.117 45.75 146.117H144.25C146.459 146.117 148.25 144.326 148.25 142.117V117.379" stroke="#5F82FF" stroke-width="0.5" stroke-dasharray="3 3"/>
  <path d="M202 0L201.817 82.621" stroke="#5F82FF" stroke-width="0.5" stroke-dasharray="3 3"/>
  <path d="M73.5004 82.621L73.5003 40.9772C73.5003 38.768 71.7094 36.9772 69.5003 36.9772L54.7676 36.9772C52.5584 36.9772 50.7676 35.1863 50.7676 32.9772L50.7676 0.573364" stroke="#5F82FF" stroke-width="0.5" stroke-dasharray="3 3"/>
  <path d="M41.7996 174.916C43.2908 174.916 44.4996 173.707 44.4996 172.216C44.4996 170.725 43.2908 169.516 41.7996 169.516C40.3084 169.516 39.0996 170.725 39.0996 172.216C39.0996 173.707 40.3084 174.916 41.7996 174.916Z" fill="#9747FF"/>
  <path d="M73.4998 62.4411C74.991 62.4411 76.1998 61.2323 76.1998 59.7411C76.1998 58.2499 74.991 57.0411 73.4998 57.0411C72.0086 57.0411 70.7998 58.2499 70.7998 59.7411C70.7998 61.2323 72.0086 62.4411 73.4998 62.4411Z" fill="#9747FF"/>
</svg>
