<svg width="291" height="200" viewBox="0 0 291 200" fill="none" xmlns="http://www.w3.org/2000/svg">
  <path d="M141.026 97.6463L141.026 40.342C141.026 38.1328 142.817 36.342 145.026 36.342L174.026 36.342C176.236 36.342 178.026 34.5511 178.026 32.342L178.026 3.6463" stroke="#5F82FF" stroke-width="0.5" stroke-dasharray="3 3"/>
  <path d="M81.0001 200L81.0001 138.696L81.0001 104C81.0001 101.791 82.791 100 85.0001 100L112 100" stroke="#5F82FF" stroke-width="0.5" stroke-dasharray="3 3"/>
  <path d="M105.7 158.4C107.191 158.4 108.4 157.191 108.4 155.7C108.4 154.209 107.191 153 105.7 153C104.209 153 103 154.209 103 155.7C103 157.191 104.209 158.4 105.7 158.4Z" fill="#9747FF"/>
  <path d="M177.818 17.3373C179.309 17.3373 180.518 16.1285 180.518 14.6373C180.518 13.1462 179.309 11.9373 177.818 11.9373C176.327 11.9373 175.118 13.1462 175.118 14.6373C175.118 16.1285 176.327 17.3373 177.818 17.3373Z" fill="#9747FF"/>
  <path d="M241 163.223C242.657 163.223 244 161.88 244 160.223C244 158.566 242.657 157.223 241 157.223C239.343 157.223 238 158.566 238 160.223C238 161.88 239.343 163.223 241 163.223Z" fill="white"/>
  <path d="M27 116.996C28.6568 116.996 30 115.653 30 113.996C30 112.339 28.6568 110.996 27 110.996C25.3431 110.996 24 112.339 24 113.996C24 115.653 25.3431 116.996 27 116.996Z" fill="#5F82FF"/>
  <path d="M112 100C112 98.8954 112.895 98 114 98H130C131.105 98 132 98.8954 132 100C132 101.105 131.105 102 130 102H114C112.895 102 112 101.105 112 100Z" fill="#676A70"/>
  <path d="M136 100C136 98.8954 136.895 98 138 98H154C155.105 98 156 98.8954 156 100C156 101.105 155.105 102 154 102H138C136.895 102 136 101.105 136 100Z" fill="#9747FF"/>
  <path d="M160 100C160 98.8954 160.895 98 162 98H178C179.105 98 180 98.8954 180 100C180 101.105 179.105 102 178 102H162C160.895 102 160 101.105 160 100Z" fill="#676A70"/>
  <path d="M151.333 102.333L157.225 116.5L159.316 110.342L165.5 108.225L151.333 102.333Z" stroke="white" stroke-width="1.5" stroke-linecap="round" stroke-linejoin="round"/>
</svg>
