<svg width="291" height="200" viewBox="0 0 291 200" fill="none" xmlns="http://www.w3.org/2000/svg">
  <path d="M83 89H113" stroke="#5F82FF" stroke-width="1.5" stroke-linecap="round"/>
  <mask id="path-3-outside-1_1358_4548" maskUnits="userSpaceOnUse" x="81" y="92" width="129" height="21" fill="black">
    <rect fill="white" x="81" y="92" width="129" height="21"/>
    <path d="M83 98C83 95.7909 84.7909 94 87 94H204C206.209 94 208 95.7909 208 98V107C208 109.209 206.209 111 204 111H87C84.7909 111 83 109.209 83 107V98Z"/>
  </mask>
  <path d="M87 94V95.5H204V94V92.5H87V94ZM208 98H206.5V107H208H209.5V98H208ZM204 111V109.5H87V111V112.5H204V111ZM83 107H84.5V98H83H81.5V107H83ZM87 111V109.5C85.6193 109.5 84.5 108.381 84.5 107H83H81.5C81.5 110.038 83.9624 112.5 87 112.5V111ZM208 107H206.5C206.5 108.381 205.381 109.5 204 109.5V111V112.5C207.038 112.5 209.5 110.038 209.5 107H208ZM204 94V95.5C205.381 95.5 206.5 96.6193 206.5 98H208H209.5C209.5 94.9624 207.038 92.5 204 92.5V94ZM87 94V92.5C83.9624 92.5 81.5 94.9624 81.5 98H83H84.5C84.5 96.6193 85.6193 95.5 87 95.5V94Z" fill="#9747FF" mask="url(#path-3-outside-1_1358_4548)"/>
  <path d="M91 102.5H121" stroke="white" stroke-width="1.5" stroke-linecap="round"/>
  <path d="M197.43 102C197.055 102 196.852 101.547 197.133 101.266L199.196 99.1406C199.274 99.0469 199.399 99 199.508 99C199.618 99 199.727 99.0469 199.805 99.1406L201.868 101.266C202.149 101.547 201.946 102 201.571 102H197.43ZM201.571 103C201.946 103 202.149 103.469 201.868 103.75L199.805 105.875C199.727 105.969 199.618 106 199.508 106C199.383 106 199.274 105.969 199.196 105.875L197.133 103.75C196.852 103.469 197.055 103 197.43 103H201.571Z" fill="#676A70"/>
  <path d="M184.75 93L184.75 1" stroke="#5F82FF" stroke-width="0.5" stroke-dasharray="3 3"/>
  <path d="M184.7 47.4C186.191 47.4 187.4 46.1912 187.4 44.7C187.4 43.2088 186.191 42 184.7 42C183.209 42 182 43.2088 182 44.7C182 46.1912 183.209 47.4 184.7 47.4Z" fill="#9747FF"/>
  <circle cx="184.699" cy="44.7" r="1.5" fill="#9747FF"/>
  <path d="M104 137C105.657 137 107 135.657 107 134C107 132.343 105.657 131 104 131C102.343 131 101 132.343 101 134C101 135.657 102.343 137 104 137Z" fill="#5F82FF"/>
  <path d="M55 200L55.0014 137C55.0015 134.791 56.7923 133 59.0014 133H123C125.209 133 127 131.209 127 129V112" stroke="#5F82FF" stroke-width="0.5" stroke-dasharray="3 3"/>
  <path d="M259.5 199.5V106C259.5 103.791 257.709 102 255.5 102H210" stroke="#5F82FF" stroke-width="0.5" stroke-dasharray="3 3"/>
  <path d="M259.7 191.4C261.191 191.4 262.4 190.191 262.4 188.7C262.4 187.209 261.191 186 259.7 186C258.209 186 257 187.209 257 188.7C257 190.191 258.209 191.4 259.7 191.4Z" fill="white"/>
</svg>
