<svg width="291" height="201" viewBox="0 0 291 201" fill="none" xmlns="http://www.w3.org/2000/svg">
  <path d="M83 96C83 93.7909 84.7909 92 87 92H204C206.209 92 208 93.7909 208 96V105C208 107.209 206.209 109 204 109H87C84.7909 109 83 107.209 83 105V96Z" fill="#280872"/>
  <mask id="path-3-outside-1_1356_3624" maskUnits="userSpaceOnUse" x="81" y="90" width="129" height="21" fill="black">
    <rect fill="white" x="81" y="90" width="129" height="21"/>
    <path d="M83 96C83 93.7909 84.7909 92 87 92H204C206.209 92 208 93.7909 208 96V105C208 107.209 206.209 109 204 109H87C84.7909 109 83 107.209 83 105V96Z"/>
  </mask>
  <path d="M87 92V93.5H204V92V90.5H87V92ZM208 96H206.5V105H208H209.5V96H208ZM204 109V107.5H87V109V110.5H204V109ZM83 105H84.5V96H83H81.5V105H83ZM87 109V107.5C85.6193 107.5 84.5 106.381 84.5 105H83H81.5C81.5 108.038 83.9624 110.5 87 110.5V109ZM208 105H206.5C206.5 106.381 205.381 107.5 204 107.5V109V110.5C207.038 110.5 209.5 108.038 209.5 105H208ZM204 92V93.5C205.381 93.5 206.5 94.6193 206.5 96H208H209.5C209.5 92.9624 207.038 90.5 204 90.5V92ZM87 92V90.5C83.9624 90.5 81.5 92.9624 81.5 96H83H84.5C84.5 94.6193 85.6193 93.5 87 93.5V92Z" fill="#9747FF" mask="url(#path-3-outside-1_1356_3624)"/>
  <path d="M97.0003 97.5V103.5M99.5983 99L94.4023 102M94.4023 99L99.5983 102" stroke="white" stroke-linecap="round" stroke-linejoin="round"/>
  <path d="M111 97.5V103.5M113.598 99L108.402 102M108.402 99L113.598 102" stroke="white" stroke-linecap="round" stroke-linejoin="round"/>
  <path d="M125 97.5V103.5M127.598 99L122.402 102M122.402 99L127.598 102" stroke="white" stroke-linecap="round" stroke-linejoin="round"/>
  <path d="M139 97.5V103.5M141.598 99L136.402 102M136.402 99L141.598 102" stroke="white" stroke-linecap="round" stroke-linejoin="round"/>
  <path d="M153 97.5V103.5M155.598 99L150.402 102M150.402 99L155.598 102" stroke="white" stroke-linecap="round" stroke-linejoin="round"/>
  <path d="M83 87H113" stroke="#5F82FF" stroke-width="1.5" stroke-linecap="round"/>
  <path d="M254 0.499998L254 157C254 159.209 252.209 161 250 161L239.744 161C237.534 161 235.744 159.209 235.744 157L235.744 105C235.744 102.791 233.953 101 231.744 101L210 101" stroke="#5F82FF" stroke-width="0.5" stroke-dasharray="3 3"/>
  <path d="M32 200.354L32.0001 65C32.0001 62.7909 33.7909 61 36.0001 61L137.776 61C139.985 61 141.776 62.7909 141.776 65V89.0001" stroke="#5F82FF" stroke-width="0.5" stroke-dasharray="3 3"/>
  <path d="M62 64C63.6568 64 65 62.6569 65 61C65 59.3432 63.6568 58 62 58C60.3431 58 59 59.3432 59 61C59 62.6569 60.3431 64 62 64Z" fill="white"/>
  <path d="M254 112C255.657 112 257 110.657 257 109C257 107.343 255.657 106 254 106C252.343 106 251 107.343 251 109C251 110.657 252.343 112 254 112Z" fill="#9747FF"/>
  <circle cx="254" cy="109" r="1.5" fill="#9747FF"/>
</svg>
