<svg width="291" height="200" viewBox="0 0 291 200" fill="none" xmlns="http://www.w3.org/2000/svg">
  <g clip-path="url(#clip0_1061_5376)">
      <path d="M255.623 -0.212368L255.623 26.5C255.623 28.7091 253.832 30.5 251.623 30.5L175 30.5C172.79 30.5 171 32.2909 171 34.5V58.5" stroke="#5F82FF" stroke-width="0.5" stroke-dasharray="3 3"/>
    <path d="M186.911 33.2C188.402 33.2 189.611 31.9912 189.611 30.5C189.611 29.0088 188.402 27.8 186.911 27.8C185.42 27.8 184.211 29.0088 184.211 30.5C184.211 31.9912 185.42 33.2 186.911 33.2Z" fill="#9747FF"/>
    <mask id="path-4-outside-1_1061_5376" maskUnits="userSpaceOnUse" x="82" y="62.7" width="127" height="75" fill="black">
      <rect fill="white" x="82" y="62.7" width="127" height="75"/>
      <path d="M84 68.7C84 66.4909 85.7909 64.7 88 64.7H203C205.209 64.7 207 66.4909 207 68.7V131.7C207 133.909 205.209 135.7 203 135.7H88C85.7909 135.7 84 133.909 84 131.7V68.7Z"/>
    </mask>
    <path d="M84 68.7C84 66.4909 85.7909 64.7 88 64.7H203C205.209 64.7 207 66.4909 207 68.7V131.7C207 133.909 205.209 135.7 203 135.7H88C85.7909 135.7 84 133.909 84 131.7V68.7Z" fill="#081A72"/>
    <path d="M88 64.7V66.2H203V64.7V63.2H88V64.7ZM207 68.7H205.5V131.7H207H208.5V68.7H207ZM203 135.7V134.2H88V135.7V137.2H203V135.7ZM84 131.7H85.5V68.7H84H82.5V131.7H84ZM88 135.7V134.2C86.6193 134.2 85.5 133.081 85.5 131.7H84H82.5C82.5 134.738 84.9624 137.2 88 137.2V135.7ZM207 131.7H205.5C205.5 133.081 204.381 134.2 203 134.2V135.7V137.2C206.038 137.2 208.5 134.738 208.5 131.7H207ZM203 64.7V66.2C204.381 66.2 205.5 67.3193 205.5 68.7H207H208.5C208.5 65.6624 206.038 63.2 203 63.2V64.7ZM88 64.7V63.2C84.9624 63.2 82.5 65.6624 82.5 68.7H84H85.5C85.5 67.3193 86.6193 66.2 88 66.2V64.7Z" fill="#9747FF" mask="url(#path-4-outside-1_1061_5376)"/>
    <path d="M94 75.7H160.452" stroke="white" stroke-width="1.5" stroke-linecap="round"/>
    <path d="M94.5 86.2H126.5" stroke="white" stroke-width="1.5" stroke-linecap="round"/>
    <g clip-path="url(#clip1_1061_5376)">
      <path d="M135 91.2H134.5C133.97 91.2 133.461 90.9893 133.086 90.6142C132.711 90.2392 132.5 89.7304 132.5 89.2M132.5 89.2V83.2M132.5 89.2C132.5 89.7304 132.289 90.2392 131.914 90.6142C131.539 90.9893 131.03 91.2 130.5 91.2H130M132.5 89.2V88.7M132.5 83.2C132.5 82.6696 132.711 82.1609 133.086 81.7858C133.461 81.4107 133.97 81.2 134.5 81.2H135M132.5 83.2C132.5 82.6696 132.289 82.1609 131.914 81.7858C131.539 81.4107 131.03 81.2 130.5 81.2H130M132.5 83.2V83.7" stroke="white" stroke-linecap="round" stroke-linejoin="round"/>
    </g>
    <path d="M194.961 133.396L204.793 123.521" stroke="#9747FF" stroke-width="1.5" stroke-linecap="round"/>
    <path d="M200.701 133.396L204.793 129.335" stroke="#9747FF" stroke-width="1.5" stroke-linecap="round"/>
    <path d="M104.223 201.778L104.223 174.891C104.223 172.682 106.014 170.891 108.223 170.891L125.74 170.891C127.949 170.891 129.74 169.1 129.74 166.891L129.74 141.5" stroke="#5F82FF" stroke-width="0.5" stroke-dasharray="3 3"/>
    <path d="M42.1004 141.4C43.5916 141.4 44.8004 140.191 44.8004 138.7C44.8004 137.209 43.5916 136 42.1004 136C40.6092 136 39.4004 137.209 39.4004 138.7C39.4004 140.191 40.6092 141.4 42.1004 141.4Z" fill="#9747FF"/>
    <circle cx="42.0996" cy="138.7" r="1.5" fill="#9747FF"/>
    <path d="M117.184 173C118.676 173 119.884 171.791 119.884 170.3C119.884 168.809 118.676 167.6 117.184 167.6C115.693 167.6 114.484 168.809 114.484 170.3C114.484 171.791 115.693 173 117.184 173Z" fill="white"/>
    <path d="M201.896 179C203.553 179 204.896 177.657 204.896 176C204.896 174.343 203.553 173 201.896 173C200.24 173 198.896 174.343 198.896 176C198.896 177.657 200.24 179 201.896 179Z" fill="#5F82FF"/>
  </g>
  <defs>
    <clipPath id="clip0_1061_5376">
      <rect width="291" height="200" fill="white"/>
    </clipPath>
    <clipPath id="clip1_1061_5376">
      <rect width="12" height="12" fill="white" transform="translate(126.5 80.2)"/>
    </clipPath>
  </defs>
</svg>
